<?xml version="1.0" encoding="utf-8"?>
<svg version="1.1" id="Layer_1" xmlns="http://www.w3.org/2000/svg" xmlns:xlink="http://www.w3.org/1999/xlink" x="0px" y="0px"
	 viewBox="0 0 578 217.1" style="enable-background:new 0 0 578 217.1;" xml:space="preserve">
<g>
	<path d="M47,216.1H31.6c0,0-31.6-13-31.6-31.2v-7.4l0.3,0.6c0.3-0.3,0.6-0.3,0.9-0.3c0.3-0.3,0.9-0.3,0.8-0.9v-0.6
		c0.2-0.3-0.5-0.6-1.1-0.6c-0.3,0-0.6,0-0.9,0.3v-7.7c0-4,6.2-6.1,6.2-6.1h15.6c3.4,0,6.2,2.8,6.2,6.2v14.6c0,3.4,2.8,6.2,6.2,6.2
		h12.6c3.4,0,6.2-2.8,6.2-6.2v-46c0.6,0,1.2-0.3,1.9-0.9l-0.3-0.3c0-0.3,0.3-0.6,0-0.9c-0.3-0.3-0.6-0.3-0.6-0.3
		c-0.3,0-0.3-0.3-0.6-0.3H53v-6c0-3.8-2.2-6-6.2-6H30.9C13.9,122.1,0,108.2,0,91.2V54.1h0.6L1,54.3v-0.6l-0.4-0.6H0v-23h0.6l0.3,0.1
		c0.3,0,1.1-0.3,1.1-0.3V30c0.3-0.3,0-0.3,0-0.6l-0.3-0.3H0.4c1.2-16.8,14.3-29,31.8-29h16.6c0,0,2.8-0.2,4.3,0.1l0.3,0.9h0.6h0.6
		H55c0-0.3,0.3-0.3,0.3-0.3c5.7,1.3,10.8,3.8,15,7.3H70c0,0-0.3,0-0.3,0.3L70,8.7V8.5l-0.4,0.3c0,0.6,0,0.9,0.3,0.9
		c0,0.3,0.3,0.3,0.3,0.3c0.6,0,0.9,0,0.8-0.3V9.1h0.8c5.3,5.3,8.4,12.7,8.4,21.4c0,0-0.3,0.3-0.3,0.6l0.3,1H81v15.8
		c0,3.4-2.8,6.2-6.2,6.2H59.2c-3.4,0-6.2-2.8-6.2-6.2v-2.8h0.3c0.3,0,0.3,0,0.7-0.3l-0.7-0.7H53v-9.8c0-3.4-2.8-6.2-6.2-6.2H34.2
		c-3.4,0-6.2,2.8-6.2,6.2v34c0-0.3-0.3-0.3-0.3-0.6c-0.3-0.6-0.9-0.6-1.6-0.6H25v1l0,0v-0.2l-0.9,0.3c0,0.3,0.3,0.6,0.3,0.6
		c0.3,0.3,0.6,0.9,0.6,0.9v0.3c0.3,0.6,0.9,0.9,1.5,0.9s1.2-0.3,1.2-0.9H28v17.8c0,3.4,2.8,6.2,6.2,6.2h15.9
		C67.1,94.1,81,107.9,81,125v1.8c-0.3,0.3-0.3,0.6-0.3,1.2H81v56h-1v0.6l0.7,0.6C80.7,203,66.3,216.1,47,216.1z M3.4,69.9
		c-0.3-0.6-0.9-0.9-1.5-0.9c-0.3,0-0.6,0-0.9,0.3c0,0.3-0.3,0.9,0,1.5l0.3,0.3h0.6C2.5,71.1,3.1,70.8,3.4,69.9z M4,93.1H3v0.8
		l0.7,0.2H4l0.3-0.2C4.3,93.6,4.3,93.3,4,93.1z M5.9,101.1H6v-0.4c0,0-0.7-0.3-1-0.6H4.6l-0.3,0.6c0,0.3,0.6,0.4,0.6,0.4h0.3
		C5.3,101.1,5.9,101.6,5.9,101.1z M6,30.8v-0.3l-1,0.6v0.3c0,0.3,0.3,0.3,0.3,0.3l0.6-0.6L6,30.8z M8,173.6l-0.3-0.3
		c0-0.3,0-0.6-0.3-0.9l-0.3-0.3H6.8l-0.3,0.3c-0.6,0.6-0.3,1.2-0.3,1.5c0.3,0,0.3,0.3,0.3,0.3l0.3,0.3C7.1,174.6,7.7,174.6,8,173.6z
		 M9.5,75.2c-0.6-0.3-0.9,0-1.2,0.3L8,75.9v0.9l0.3,0.3h0.3c0,0,0.3,0.3,0.6,0.3l0.3-0.3C9.9,76.5,10.2,75.9,9.5,75.2z M9,93.4
		l-0.3-0.3H8.4l-0.3,0.3c-0.3,0.6,0.3,0.9,0.3,0.9L8.7,94C9,94,9,94,9,93.7V93.4z M11.7,8.4c0-0.3,0-0.3-0.3-0.3H11v1h0.7L12,8.8
		C12,8.8,12,8.4,11.7,8.4z M12,188.3V188c-0.2-0.3-0.5-0.3-0.5-0.6l-0.6-0.3h0.3c-0.3,0.6-0.6,0.6-0.1,0.9v0.1h0.1l0.3,0.5
		C11.5,188.6,11.8,188.6,12,188.3z M12.6,185.1c0-0.3,0-0.3-0.3-0.3c0-0.3,0-0.3-0.3-0.3v0.3l-0.3,0.3H12v0.3
		C12.3,185.4,12.6,185.1,12.6,185.1z M15.9,39.9l-0.3-0.3c-0.3-0.3-0.6-0.6-0.9-0.3l-0.3,0.3c0,0.3,0,0.3-0.3,0.6v0.3l0.6,0.6h0.3
		c0,0,0.3,0,0.3-0.3C15.5,40.5,15.9,40.2,15.9,39.9z M15,30.2c0.5,0.3,0.8,0.3,0.8-0.1h0.3L16,30.2v-0.6c0.1-0.3-0.5-0.3-1-0.3V30.2
		z M15.7,54.9l0.3-0.3v-0.3c0,0,0-0.3-0.3-0.6L15.4,54c-0.3,0-0.3,0-0.3,0.3l0.3,0.3C15.4,54.6,15.4,54.9,15.7,54.9z M17.9,118.1
		h-0.3H17.9l0.1-1h-0.4c-0.3,0.3-0.3,0-0.6,0c-0.9,0-0.9,0.9-1.2,1.5l0.3,0.3c0.3,0.3,0.3,0.3,0.6,0.3c0.6,0,0.9-1.2,0.9-1.2H17.9z
		 M16.1,40.1l0.3,0.6c0.3,0,0.3-0.3,0.6-0.3v-0.6l-0.3-0.3C16.4,39.5,16.1,39.8,16.1,40.1z M21,206.8c0-0.9-0.3-1.2-1.2-0.8h-1.2
		l-0.3-0.2c0,0.6-0.3,0.9-0.3,0.9v0.3l0.9-0.1h0.3c0.3,1,0.6,1,0.6,1h0.3l0.3-0.3c0.3,0,0.6-0.3,0.6-0.6V206.8z M19.5,55.1h-0.3
		l-0.3,1h-0.3h0.3h-0.3c0,0.1,0.3,0.4,0.6,0.4L19,56.2v-0.3C19,55.9,19.8,55.5,19.5,55.1z M19.2,36l0.3,0.3c0,0.3,0,0.6,0.3,0.6
		l0.2-0.3v-1.6h1v1l-0.9,0h-0.3C19.8,35.7,19.2,35.7,19.2,36z M19.8,37.6 M21.7,47.5c-0.3-0.3-0.9-0.6-1.7-0.6v1.2h0.4
		c0.3,0,0.3,0,0.3,1h0.6C21.7,48.1,21.7,47.8,21.7,47.5z M23.7,73.1h-0.3c-0.3,0-0.3,0.3-0.3,0.3l-1,1v0.7c0,0.3,0,0.7,0.3,1h1.3
		l0.3-0.3v-1C24,74.1,24.3,73.4,23.7,73.1z M22.9,6c0,0.3,0.3,0.6,0.1,0.6V6.1h1V5.4C23.2,5.4,22.9,5.7,22.9,6z M24.1,65.1
		c0-0.6-0.3-0.6-0.6-1h-0.3l-0.3,0.7c0,0.6,0.3,0.6,0.6,0.9l0.5-0.3v-0.3H24.1z M26,35.7c0.3,0.3,0.3,0.3,0.6,0.3l0.3-0.3l-0.3-0.6
		h-0.3C26.3,35.4,26,35.4,26,35.7z M29.1,119.8c0-0.3,0-0.6-0.3-0.6c-0.3-0.3-0.6-0.3-0.9-0.3l-0.3,0.3c-0.3,0.3-0.3,0.6,0,0.9
		l0.3,0.3c0.3,0,0.6-0.3,0.6-0.3h0.3L29.1,119.8z M29,16.4l0.3,0.3c0.3-0.3,0.6-0.3,0.6-0.6h0.3l-0.3-0.6c-0.3,0-0.6,0-0.9,0.3V16.4
		z M32,2.6l-0.1,0.5H33V2.3l-0.5-0.2h-0.6L32,2.3V2.6z M32,11.5c-0.3,0-0.3,0.3-0.3,0.3l0.3,0.3v-0.3l0.3,0.3h0.3
		c0.3-0.3,0.3-0.3,0.3-0.6C32.6,11.2,32,11.2,32,11.5z M45,3.2c0.3,0.3,0.6,0.3,0.9,0.3l0.3-0.3c0-0.3,0-0.6-0.3-0.9
		c0,0-0.3-0.3-0.6-0.3L45,2.3V3.2z M48.6,14.4l0.3,0.3c0.3,0.3,0.3,0.6,0.9,0.4h0.3l0.3-0.1c0-0.9-0.3-1.2-0.6-1.9h-0.6
		C49.2,13.8,48.6,14.1,48.6,14.4z M50,9.3v0.3c0.3,0,0.6,0.3,0.6,0.3c0.9,0,1.5-0.6,1.5-1.2l-0.3-0.6h-0.3c-0.3-0.3-0.6-0.3-1.2,0
		H50v0.3C50,8.7,49.7,9,50,9.3z M52.3,213.5l-0.6-0.6l-0.3,0.3c-0.3,0.3-0.3,0.3-0.3,0.6l0.3,0.3h0.3
		C52,214.1,52.3,214.1,52.3,213.5z M54,211.9c-0.3,0-0.3,0-0.3-0.3c-0.3,0-0.9-0.3-1.4,0l-0.3,0.3v0.9c0.3,0.3,0.3,0.3,0.6,0.3
		l0.3,0.6c0.3,0,0.6-0.3,0.6-0.6h0.3l0.3-0.3V211.9z M54.3,124.1l-0.3-0.3v-0.3c0,0-0.6,0.3-0.6,0.6h0.3l0.3,0.3L54.3,124.1z
		 M53.8,50c0,0.3,0,0.9,0.6,1.1h0.6c0.3,0.4,0.6,0.4,0.9,0.1v0.9h0c0-1.2,0-1.5-0.3-1.8c-0.3,0-0.3-0.3-0.3-0.3
		c-0.3-0.3-0.6-0.3-1.2-0.3L53.8,50z M55.3,48c0,0.3,0.3,0.3,0.6,0.3c0,0,0.3,0,0.6-0.3l-0.3-0.3c0.3,0,0.3-0.3,0.3-0.3
		c0-0.3-0.3-0.3-0.3-0.3h-0.3c0-0.3-0.3-0.3-0.9-0.3v0.3C55,47.4,55,47.7,55.3,48z M56.3,141.1c0.3,0,0.7,0,0.7-0.3v-0.7h-0.3
		c-0.3,0-0.3,0-0.7,0.3c-0.3,0.3,0,0.3,0,0.7H56.3z M58,191.1c-0.3-0.3-0.7-0.6-1-0.3c0,0-0.3,0-0.3-0.3l-0.7,0.6h0.3
		c-0.3,0.3-0.3,0.3-0.3,0.6v0.3c0.3,0,0.3,0,0.3,0.3c0,0,0.3,0.6,1,0.6l0.3-0.3c0-0.3,0-0.6,0.3-0.6V191.1z M57,22.8l0.3,0.3h0.3
		c0.3,0,0.3,0,0.7-0.3c0-0.3-0.3-0.3-0.7-0.7h-0.3L57,22.4V22.8z M57.9,111l0.6-0.3c0,0,0.3-0.3,0.3-0.6l-0.3-0.3c0,0,0-0.3-0.3-0.6
		h-0.6l-0.3,0.3C57.2,110,56.9,111,57.9,111z M57,13.8c0.3,0,0.7,0.3,1.3,0.3h0.3l0.3-0.3v-1.3c-0.3-0.3-0.7-0.3-1-0.3h-0.7L57,12.4
		V13.8z M59.7,182.1h-0.3h-0.3h-1.2c0,0-0.3,1.2,0,1.5c0,0.3,0,0.6,0.3,0.6l0.3-0.2h0.3L59.7,182.1z M60,179.1h-0.3
		c0,0-0.3,0.5-0.7,0.8v0.2h1v1h-0.3c0.3-0.2,0.6-0.2,0.3-0.5v-0.6L60,179.1z M59,23.1h1v1h0.3l0.3-1c0-0.3,0.4-0.6,0.4-0.6v-0.3
		h-1.3L59,22.4V23.1z M62,7c0.2,0.3,0.2,0.9,1.1,1.1H63V7.6l0.7-0.3c-0.3-0.6-0.6-0.6-0.9-0.2H62V7z M65,195.1c0-0.3-0.3-0.9-1.2-1
		h-0.3c-0.3,0.4-0.3,0.4-0.3,0.7c-0.3,0.3-0.3,0.6-0.3,1.2l0.6,0.6l0.3-0.3l0.3-0.2h0.6C65.3,195.7,65.3,195.4,65,195.1z M64.5,33.8
		l0.3,0.3l0.6-0.3l-0.3,0.3h0.6c0,0,0.3,0,0.3-0.3v-0.3c0,0,0.3-0.3,0.3-0.6L66,32.5c-0.3,0-1.2-0.3-1.5,0l-0.3,0.3
		C64.1,33.2,64.5,33.5,64.5,33.8z M66.2,47.5c0-0.6-0.3-1.2-0.9-1.2c-0.3,0-0.6,0-0.9,0.6c-0.3,0.6,0,0.9,0.3,1.2l0.3,0.3v-0.3
		l0.3,0.3C66.2,48.4,66.2,47.8,66.2,47.5z M65.9,51.8c0-0.3-0.3-0.6-1.2-0.6c-0.3,0.3-0.6,0.6-0.6,1.2c0.3,0.3,0.9,0.6,0.9,0.6h0.3
		l0.6,1H66v-1h1v-1h-0.8L65.9,51.8z M67.8,199.7l-0.3-0.3c-0.3-0.3-0.6-0.6-0.6-1.2l-0.3-0.1h-0.3c-0.3-0.5-0.6-0.2-0.9,0.1
		l-0.3,0.3v0.6c0,0.9,0,2.2,1.8,2h0.3c0-0.1,0-0.4,0.3-0.4C67.5,200.4,67.5,200,67.8,199.7z M65.9,207.5l-0.3-0.3
		c-0.3,0-0.6,0.3-0.6,0.6c0,0.3,0,0.6,0.3,0.6l0.3-0.3C65.9,208.1,66.2,208.1,65.9,207.5z M68.7,139.1h0.7l0.7-0.6v-0.6
		c-0.7-0.6-1.7-0.6-2-0.3v1.5l0.3,0.3L68.7,139.1z M69.3,161.1l-0.3,0.3v-0.3c-0.3,0-0.3,0-1,0.3v0.3l0.7,0.3c0.3,0,0.9-0.3,0.9-0.6
		C69.6,161.4,69.6,161.1,69.3,161.1z M69.6,49.1H70v1.2l0.2-0.2h0.6l0.3,0.2c0-0.3,0-0.9-0.3-0.9C70.6,48.7,69.9,48.7,69.6,49.1z
		 M73.4,135.1H73c-0.3,0-1,0.3-0.7,0.7c0,0.3,0,0.3,0.3,0.3H73l0.7-0.3C73.7,135.4,73.7,135.1,73.4,135.1z M77,137.2v-0.6
		c-0.3,0,0,0,0-0.3l-0.3-0.3c0-0.3-0.6-0.6-1.2-0.6c-0.3,0-1.5,0.3-1.5,0.3v1.5l1,0.3v0.6h1.1L77,137.2z M76.4,34.5
		c0.3,0.3,0.6,0.6,0.9,0.6c0,0,0.3,0,0.3-0.3l-0.3-0.7h0.3c0-0.3,0.3-0.3,0-1h-0.3l-0.3,1h-0.3C76.7,34.1,76.4,34.2,76.4,34.5z
		 M77,186.4c0-0.3-0.3-0.3-0.3-0.3h-0.3l-0.3,0.3v0.3l0.3,0.3h0.3C77,187.1,77,186.8,77,186.4z M78.6,153.1l0.3-1H79v0
		c0.5,0,0.5-0.3,0.5-0.3c-0.3-0.3-0.9-0.3-1.5-0.3v1.6H78.6z M79.3,175.1c0.7,0,0.7-0.7,0.7-1.3v-0.7c-0.7,0-0.7,0.3-1,0.3l-0.3,0.3
		c0,0.3,0.3,0.7,0.3,0.7v0.3L79.3,175.1z M79.2,171.1c-0.3,0.3-0.3,0.9-0.3,0.9c0,0.3,0.3,0.6,0.6,0.6l0.3-0.3c0.3-0.3,0-0.9,0-1.2
		H79.2z"/>
	<path d="M139,138.1v72.8c0,3.4-2.8,6.2-6.2,6.2h-15.6c-3.4,0-6.2-2.8-6.2-6.2v-4.1l0.3,0.3c0,0.3,0,0.7,0.7,0.7l0.3-0.3
		c0.3-0.3,0-0.7-0.3-1v-0.3h0.3l0.3-0.3c0-0.3-0.3-0.7-0.3-0.7l-0.3-0.7c-0.3,0-0.7,0.3-0.7,0.7H111v0.7c0,0,0.3,0,0.3,0.3H111
		v-39.8c0,0.3,0,0.3,0.3,0.3l0.7-0.6v-0.9l0,0V55.5v-0.3v-0.3c0,0,0-0.3,0-0.6l0-0.3V7.6c0,0-0.3-0.3-0.3-0.6c0,0-0.3,0,0.3-0.3V6.3
		c-0.6-2.2,2-5.3,2-5.3v0.3c0.3,0,0.3,0.3,0.6,0.3c0,0,0.3,0,0.3-0.3c0.3-0.3,0-0.6,0-0.6c0.3-0.3,0.9-0.3,1.1-0.6v0.9l1,0.3
		c0.3,0,0.6-0.3,0.6-0.3h0.3l0.1-0.6V0.1h1.4c0.3,0,0.3,0.3,0.6,0.3V0.1h12.8c3.4,0,6.2,2.8,6.2,6.2v106.8l-0.1,0.3l0.1,0.3v23.4h1
		v1H139z M112,12.1c0.3-0.2,0.6-0.5,0.6-0.8l-0.3-0.3l-0.6,0.1h0.3c-0.3,0.2-0.6,0.5-0.3,1H112z M112,5.7l0.3,0.3
		c0.3,0,0.7,0,0.7-0.3V5.4c0-0.3-0.3-0.3-0.3-0.3h-0.3L112,5.4V5.7z M111.7,8.2l0.3,0.6c0,0.3,0.3,0.3,0.3,0.3h0.6
		c0-0.3,0.3-0.3,0.1-0.3V7.9c-0.1,0-0.1-0.6-0.4-0.6L112,7.6v0.3C111.7,7.9,111.7,7.9,111.7,8.2z M112.7,15.1l0.3-0.3v-0.7h-0.7
		l-0.3,0.3v0.7H112.7z M113.9,22c0,0,0.3-0.3,0-0.6l-0.3-0.3h-0.3l-0.3,0.3V22c0.3,0.3,0.3,0.3,0.6,0.3L113.9,22z M114.8,104.1
		c-0.3,0-0.3,0-0.6,0.3c0-0.3-0.6-0.3-1.2,0v0.6c0.6,0,0.3,0.6,0.6,1h1.2l0.2-0.4v-0.3c0.1,0,0.4,0,0.4-0.3H115v-0.7L114.8,104.1z
		 M114,13.5c-0.4,0-0.1,0.3,0.2,0.6h0.3l0.5-0.9v-0.6c-0.5,0-0.5-0.3-0.8-0.3c-0.3,0-0.3,0.3-0.2,0.6V13.5z M114.9,128.3
		c0-0.6-0.3-0.6-0.6-0.6l-0.3,0.3v0.3c0,0,0,0.3,0.3,0.3L114.9,128.3z M114.8,125.1l0.6,1l0.3-0.3c0-0.3,0-0.6-0.6-0.7H114.8
		c0,0.1-0.3,0.1-0.8,0.4v-0.4H114.8z M115.4,132.9l-0.3,0.3c-0.3,0.9,0.3,0.9,0.3,0.9l0.6-0.3C116,133.2,115.4,133.2,115.4,132.9z
		 M115,5.1v0.3c0.7,0,0.7,0.6,1,0.6V5.7l0.3-0.3c0-0.6-0.3-0.6-0.6-0.6L115,5.1z M117,49.8v-0.3c-0.3-0.3-0.3-0.3-0.7-0.3l-0.3,0.3
		v0.6h0.7L117,49.8z M116,25.8v0.3c0,0.3,0,0.6,0.7,0.9h0.3v-0.6c0.6-0.3,0.3-0.3,0.3-0.6C117.3,25.8,116.7,25.5,116,25.8z
		 M116.9,31.4l0.3-0.3c0.3-0.3,0-0.3,0-0.6c-0.3-0.3-0.9-0.3-1.2,0v0.3C116.3,31.1,116.6,31.4,116.9,31.4z M117.9,212
		c0-0.3,0-0.6-0.3-0.9h-0.3c-0.6,0-0.6,0.3-0.9,0.6c0,0.6,0.3,0.9,0.9,1.2l0.3-0.3C117.6,212.6,117.9,212.3,117.9,212z M117.3,86.1
		H117l-1,0.1v0.3l1,0.3c0.3,0,0.3,0.3,0.3,0.3h0.3c0.3,0,0.4-0.6,0.4-0.6v-1.4h-0.1C117.9,85.9,117.3,86.1,117.3,86.1z M117.9,131.1
		H116l0,0h1v1h0l0-0.1v0.3C117.9,132,117.9,131.1,117.9,131.1z M118.2,124.5c0-0.3-0.9-0.6-1.2-0.3v0.6c0.3,0.3,0.6,0.3,0.6,0.3h0.6
		C118.5,124.8,118.5,124.8,118.2,124.5z M117.6,15.5c0,0.3,0.3,0.6,0.3,0.6h0.6c0.3-0.3,0.6-0.3,0.3-0.9c-0.3-0.3-0.6,0-0.6,0
		L117.6,15.5z M118.9,39.1H118v0.3c-0.3,0.3-0.6,0.6-0.6,0.9c0,0.6,0.6,1.2,1.5,1.2c0.3,0,0.6-0.3,0.9-0.6
		C120.2,39.7,119.2,39.4,118.9,39.1z M120,99.5v-0.6c0-0.3,0-0.3-0.3-0.6c-1-0.3-1.7,0.3-1.7,0.6v0.3c0,0.3,0.3,0.9,0.7,0.9h0.3
		c0.3,0,0.3,0,0.7-0.3C120,99.8,120,99.5,120,99.5z M120.2,159.4l-0.3-0.3c0,0-0.3-0.3-0.9-0.3v0.3h-0.3l-0.3,0.3
		c0,0.3,0.3,0.6,0.6,0.6l0.3-0.3C119.6,160,120.2,160,120.2,159.4z M118.2,134.8l0.3,0.3h0.3c0.3,0,0.3-0.6,0.3-0.9
		c0-0.6-0.3-0.6-0.6-0.6C118.2,133.9,118.2,134.2,118.2,134.8z M121,74.1v-0.3c-0.3,0-0.6-0.3-0.9-0.3c-0.3,0-0.6,0.3-0.6,0.6
		l0.6,0.3v0.3l0.1,0.3C120.4,74.7,121,74.7,121,74.1z M120.1,51.5c-0.3,0.3-0.3,0.6-0.3,0.9c0,0,0,0.3,0.3,0.6h0.9l0.3-0.3
		C121.3,51.9,120.4,51.5,120.1,51.5z M124,199.4c-0.3-0.3-1-0.3-1.3-0.3H122l-0.3,0.3c0,0-0.3,0-0.3,0.3c0,0-0.3,0.3-0.3,0.6v0.3
		c0.3,0.3,0.7,0.6,1,0.6c1,0,1.3-0.6,2-1.2V199.4z M121.3,166.3l0.3,0.6c0.3,0,0.3,0,0.3-0.3l0.3,0.3l0.3-0.8h0.3
		c0,0.2,0,0.2,0.3,0.2l0.3-0.3l-0.3-0.9h-0.3C121.6,165.4,121.3,166,121.3,166.3z M122,80.9c-0.4,0.3-0.1,0.3-0.1,0.3
		s-0.3,0,0.1,0.3v0.3c-0.1,0.3-0.1,0.3,0.2,0.3c0.3,0-0.2-0.9-0.2-0.9v-0.6l1-0.6v0.3l-0.8-0.2h0.3l0.3-0.4c0-0.3,0-0.3-0.3-0.6
		c0,0,0-0.3-0.3,0h-0.3l-0.3,0c0,0.3,0.3,0.6,0.3,1h0.3l-0.2,0.2V80.9z M121.9,82.8l-0.3,0.3c0,0,0,0.6,0.3,0.9l0.6-0.3
		C122.5,83.1,122.2,82.8,121.9,82.8z M123.8,175.1h-0.3c-0.6-0.7-0.9-0.4-2.5-0.4v0.3l0.6,0.3c0.3,0,0,0,0.4,0.3v0.6l-0.1,0.9H121
		v-0.9l1.5,0.6l0.3-0.3C123.5,176.2,124.1,175.9,123.8,175.1z M122.2,67.8c0,0.3,0.3,0.3,0.3,0.3h0.3l0.3-0.3c0-0.6-0.3-0.6-0.6-0.9
		l-0.6,0.3C121.9,67.5,121.9,67.8,122.2,67.8z M122.2,22.7l0.3,0.4h-0.3l0.3,1h0.3c0.3-0.7,0.3-1,0.3-1.4c0-0.3-0.3-0.3-0.6-0.3
		C122.5,22.4,122.2,22.4,122.2,22.7z M123.6,24c0,0,0-0.3-0.3-0.3L123,24v0.6c0,0.3,0.3,0.3,0.3,0.3l0.3-0.3c0.3,0,0.3,0,0.3-0.3
		L123.6,24z M124,29.9c-0.2-0.3-0.8-0.3-1,0v0.9c0.2,0,0.2,0.3,0.5,0.3h0.3l0.2-0.6V29.9z M125.9,208.4l-0.3-0.3H125
		c-0.6,0-0.9,0.6-0.9,0.6l0.6,0.6c0.3,0,0.6-0.3,0.9-0.3C125.6,208.7,125.9,208.7,125.9,208.4z M125,149.6c-0.3,0.3,0,0.3,0.3,0.5
		h0.3c0-0.5,0.3-0.8,0-1.1c0-0.3-0.3-0.3-0.6,0.1h0V149.6z M125,71.8l0.3,0.3h0.3l0.3-0.3c0.3,0,0.3-0.3,0.3-0.3l-0.3-0.3h-0.3
		c0-0.3,0-0.3-0.3-0.3l-0.3,0.3v0.3C125,71.4,124.7,71.4,125,71.8z M125.6,42.1h0.3c0.3,0,0.3-0.3,0.3-0.3c0-0.3,0-0.6-0.3-0.6
		l-0.6,0.3C125.3,41.8,125.3,41.8,125.6,42.1z M127.3,150.2c-0.3-0.3-0.9-0.3-1.2-0.3l-0.3,0.3c0,0.3,0.3,0.6,0.6,0.9h0.6v-0.3
		C127.3,150.8,127.3,150.5,127.3,150.2z M127,193.9v-0.3c-0.4-0.3-0.8-0.3-1.1-0.3l0.1,0.3v0.3l-0.1,0.3
		C126.2,194.2,126.6,194.2,127,193.9z M126.3,83.9l-0.3,0.3v0.3c0,0.3,0,0.6,0.3,0.6h0.3c0.3-0.3,0.3-0.6,0.3-0.6
		C126.9,84.2,126.6,84.2,126.3,83.9z M128.1,122.4l-0.3-0.3c0-0.3,0-0.9-0.6-0.6l-0.2,0.3v-0.3l-0.4,0.3c0,0.3,0,0.3-0.6,0.3v1h1.2
		C127.5,123,127.8,123,128.1,122.4z M129,102.9l-0.3-0.8h-0.6l-0.1,0.5v0.6c-0.2,0,0.1,0-0.2,0.3l0.3,0.6h0.3
		c0.3-0.3,0.6-0.9,0.6-0.9V102.9z M128,74.7l0.6,0.6l0.3-0.3c0.3-0.3,0.3-0.6,0-0.9l-0.3-0.3c-0.3,0-0.3,0.3-0.6,0.3V74.7z
		 M129.7,85.1c0,0.2,0,0.2,0.3,0.2l0-0.6v-1c-0.3-0.6-0.3-1.5-0.9-1.5H128v1l1,0.3v-0.3h-0.6c0,0-0.3,0.9-0.4,1.5v0.6
		c0.4,0,0.4,0,0.7-0.2H129.7z M129,5.1h0.3c0.3,0,0.6-0.3,0.6-0.6c0,0-0.3-0.3-0.6-0.3L129,4.5V5.1z M131,186.8c0-0.3,0-0.7-0.3-0.7
		H130v0.7c0,0.3,0.3,0.3,0.3,0.3h0.3L131,186.8z M131.2,185.2c0,0-0.3-0.3-0.6,0l-0.3,0.3c0,0.3,0,0.6,0.6,0.6h0.3
		C131.2,186.1,131.5,185.5,131.2,185.2z M130.9,105l0.1-0.6v0.7h1v-1l-0.5-0.3c-0.3,0-0.9,0.3-0.9,0.6
		C130.6,104.4,130.6,104.7,130.9,105z M131.5,126.8c0,0.3,0.3,0.3,0.3,0.3h0.3l0.3-0.3c0-0.3,0-0.3-0.3-0.6c0,0-0.3-0.3-0.6-0.3
		l-0.3,0.3C131.2,126.5,131.2,126.8,131.5,126.8z M131.8,60.5l0.3,0.6h-0.3c0.3,0,0.3,0.3,0.6,1h0.3l0.3-1v-0.6l-0.3-0.3
		C132.4,60.2,132.1,60.2,131.8,60.5z M133,188.3l-0.3-0.2h-0.6l-0.1,0.2v0.6c-0.2,0.3,0.1,0.3,0.4,0.2h0.3l0.3-0.2V188.3z
		 M134,126.5c-0.3,0-0.3-0.3-0.6-0.3c-0.3,0-0.6,0.6-0.6,0.9c-0.3,0.3,0,0.9,0.6,0.9h0.3c0.3-0.6,0.3-0.6,0.3-0.9V126.5z
		 M133.1,69.7c0,0.3,0.3,0.6,0.6,0.6L134,70v0.3l0.3-0.3c0.3-0.6-0.3-0.9-0.3-0.9h-0.6C133.1,69.4,133.1,69.4,133.1,69.7z
		 M133.7,1.5l0.3,0.3v0.3h1V1.5l-0.3-0.6L133.7,1.5z M134.9,82.8l-0.3-0.3c0,0,0-0.3-0.3-0.3l-0.3,0.3c0,0-0.3,0-0.3,0.3l0.3,0.3
		c0.3,0,0.3,0.3,0.6,0.3C134.6,83.4,134.9,83.4,134.9,82.8z M134.6,3.2L134,3.5v0.6c0.3,0,0.3,0.3,0.6,0.3l0.3-0.3h0.3
		C135.2,3.8,135.2,3.5,134.6,3.2z M134.7,5.1c-0.7-0.3-0.7,0-0.7,0.3v0.7h0.3c0.3,0,0.3-0.3,0.3-0.3c0.3,0,0.3-0.3,0.3-0.7H134.7z
		 M134.9,59.6c0-0.3,0-0.6-0.6-0.6l-0.3,0.3v0.3c0,0.6,0.3,0.6,0.3,0.6C134.6,60.2,134.9,59.9,134.9,59.6z M136.2,140.8
		c0-0.3-0.3-0.7-0.7-0.7h-0.3c0,0.3-0.3,0.7,0,0.7c0,0.3,0,0.3,0.3,0.3h0.3L136.2,140.8z M139.2,161.7l-0.3-0.3c0,0-0.3,0-0.3-0.3
		c0-0.3-0.3-0.6-0.9-0.6l-0.3,0.7h-0.3c-0.3-0.3-0.6,0-0.9,0.3l0.9,0.3v0.3c-0.5,0.3-0.5,0.6,0,0.9v0.2h1.3l0.3-0.2
		c0-0.3,0-0.3,0.3-0.6C138.9,162.3,138.9,162,139.2,161.7z M137,51.2v0.3c0.1,0.3,0.4,0.6,1,0.6h0.3l0.7-0.3v-0.3l-0.7-0.3
		c-0.3,0-0.3,0-0.3-0.3l-0.3,0.3c0-0.3-0.3-0.3-0.3-0.3L137,51.2z M138.3,119l-0.3,0.3v0.6l0.3,0.3c0.3,0,0.6-0.3,0.6-0.6
		C138.9,119.3,138.6,119,138.3,119z M139.2,149.1h-0.3c0-0.3,0-0.6-0.6-0.6c-0.3,0.3-0.3,0.3-0.3,0.6c0,0.3,0.3,0.3,0.9,0.3
		L139.2,149.1z"/>
	<path d="M277.8,217.1h-15.1c0,0-6.2-2.5-6.7-6.5v-62.5h2v-1h0.4l-0.3-1h-0.3l0.3-0.2v-0.3c0,0-0.9-0.6-1.2-0.5H256v-39.4
		c0.5-2.8-1.7-3.4-2.9-0.6l-18.3,44.9c-0.9,2.8-2.8,4.3-5.3,4.6c0,0,0-0.3,0.3-0.3l-0.3-0.3c0-0.3,0.3-0.6,0-0.9
		c-0.3,0-0.6-0.3-0.6-0.3c-0.3,0-0.3,0-0.6-0.3c-0.6,0-1.2,0.6-1.2,1.2c-0.3,0.3,0,1.5,0,1.5h-0.2c-3.5,0-6-1.5-7.2-5l-18.2-44.3
		c-1.3-2.8-3.5-2.2-3.5,0.6v104.5c0,4-2.2,6.2-6,6.2h-15.8c-3.4,0-6.2-2.8-6.2-6.2V54.1h1.7l0.3,0.2v-2.2l-0.3-0.3l-0.3,0.3H171
		l-0.3,0.3c0-0.3,0-0.6,0.3-0.9v-0.3c-0.3-0.3-0.7-0.6-1-0.6V6.3c0-3.4,2.8-6.2,6.2-6.2h0.7c0,0,0,0.3,0.3,0.3l0.3-0.3h15.7
		c3.1,0,5.8,1.9,6.8,5l7.7,24.8l-0.3,0.3l0.3,0.3L220.9,74c-0.3,0-0.3,0-0.3,0.3c0,0,0,0.3,0.3,0.3c0,0.3,0,0.3,0.3,0.3l4.9,17.3
		c0.6,2.5,3.4,2.5,4,0l1.8-5.9v-0.3c0-0.3,0.3-0.3,0-0.6L254.5,5c0.9-3.1,3.7-5,7.1-5h16.3c3.4,0,6.2,2.8,6.2,6.2v67.8h0.1
		c0-0.3-0.3-0.3-0.3,0c0-0.6-0.9-1-0.9-1h-0.3c0,0-0.6,0.4-0.6,0.7c0,0.6,0.9,1.3,0.9,1.3h-0.1c0.3,0,0.3,0,0.6-0.3
		c0,0.3,0,0.6,0.6,0.6v60c-0.3,0.3-0.3,0.6,0,0.9v74.6C284,214.3,281.2,217.1,277.8,217.1z M171.4,206.8c0-0.3-0.3-0.6-0.6-0.6
		c0,0-0.3,0-0.3,0.3l0.3,0.3l-0.3,0.3h0.3c0,0,0,0.3,0.3,0.3C171.4,207.1,171.4,207.1,171.4,206.8z M171.6,23.5c0.3,0,0-0.3-0.3-0.3
		l-0.3,0.3v0.6h0.3C171.6,24.1,171.6,23.8,171.6,23.5z M175.1,73.2l0.6-0.3c0,0,0,0.3-0.3,0.3l0.6-0.3c0,0,0.3,0,0.9-0.3v-0.3
		l-0.9-0.2h-0.3c-0.3-0.5-0.3-0.5-0.8-0.5v0.9C174.8,72.6,174.8,72.9,175.1,73.2z M175.1,47.5l-0.1,0.3v0.3l0.8,1h0.6
		c0.3-0.7,0.3-0.7,0.6-1c0.3-0.3,0-0.6,0-0.9l-0.3-0.1h-0.6C175.4,46.9,175.1,47.2,175.1,47.5z M178,195.2c-0.3-0.3-1-0.6-1.7-0.6
		s-1,0.3-1.3,0.9v0.9c0.3,0,0.3,0.3,0.3,0.3l0.3,0.3h1c0.3-0.3,1-0.3,1.3-1.2V195.2z M179,88.2v-0.3c-0.3-0.3-0.9-0.9-1.5-0.9
		c-0.3,0-0.6,0.3-0.9,0.6c0,0.3-0.3,0.9,0,1.5h0.3c0,0.3,0.3,0.3,0.6,0.3C178.1,89.4,178.7,89.1,179,88.2z M180.7,20.4l-0.3-0.3H180
		c-0.3,0.3-0.7,0.3-1,0.3v1.3c0.3,0,0.3,0,0.3,0.3h1C180.7,21.8,180.7,21.1,180.7,20.4z M179.7,111.1H179v0.7l0.3,0.3h0.7
		C180,111.8,180,111.4,179.7,111.1z M181.3,119.9l-0.3-0.3v-0.3c0,0-0.3-0.3-0.6-0.2h-0.3l-0.3,0.2c0,0.3,0.3,0.6,0.6,0.9l0.3-0.3
		c0,0,0,0.3-0.3,0.2h0.3C181,120.2,181.3,120.2,181.3,119.9z M181,49.5l-0.3-0.3l-0.7,0.3v0.6h0.7l0.3-0.3V49.5z M183.3,192.6
		l-0.3-0.3V192c0,0,0-0.3-0.3-0.9h-0.9c-0.6,0.6-0.3,1.2-0.3,1.9c0.3,0,0.3,0.3,0.3,0.3l0.3,0.3C182.4,193.6,183,193.6,183.3,192.6z
		 M181.6,8.5c0,0.3,0,0.6,0.6,0.6l0.3-0.3c0-0.6-0.3-0.6-0.6-0.6L181.6,8.5z M183.5,20.1h0.3c0-0.1,0.3-0.4,0-0.4
		c0-0.3-0.3-0.6-0.3-0.6h-0.6C182.9,19.6,182.9,20,183.5,20.1z M185,93.9v-0.3l-1,0.3v0.3l-1,0.3v0.6l0.5,0.3c0,0,0,0.3,0.3,0.3
		c0,0,0.3,0.3,0.6,0.3l0.3-0.3C185,95.1,185,93.9,185,93.9z M184,112.4l-0.3-0.3h-0.3l-0.3,0.3c-0.3,0.6,0.3,0.9,0.3,0.9l0.3-0.3
		c0.3,0,0.3,0,0.3-0.3V112.4z M186,27.1h1c0-0.3,0-0.7-0.3-0.7c0-0.3,0-0.3-0.3-0.3H186V27.1z M187,206.8c0.2-0.3-0.1-0.6-0.1-0.6
		l-0.6,0.3l0.3-0.3c-0.3,0-0.6,0.3-0.6,0.6v0.2h1V206.8z M188.4,203.4l-0.3-0.3H188v0.3l-0.5,0.7h0.5v0
		C188.1,204.1,188.4,203.8,188.4,203.4z M189,6c0.3,0.3,0.6,0.6,1.2,0.6c0.6-0.3,0.9-0.9,0.6-1.5c0-0.6-0.9-0.9-1.9-0.6v0.3
		C188.7,5.1,189,5.7,189,6z M190.9,58.1L190.9,58.1l0.1-0.7c-0.7,0-1-0.3-1.3-0.3l-0.3,0.3c0,0.3,0,0.6-0.4,0.6v0.3l0.4,0.8h0.3
		c0-0.1,0,0.2,0.3,0.2c0,0,0.3-0.3,0.3-0.6C190.6,58.6,190.9,58.3,190.9,58.1z M191,47.8v1.3h0.5l0.5-0.7v-0.6
		C191.5,47.5,190.9,47.5,191,47.8z M190.6,72.4l0.3,0.7h0.3l0.3-0.3c0,0,0-0.7-0.3-0.7h-0.3C190.6,72.1,190.6,72.4,190.6,72.4z
		 M190.9,167.1h0.6l0.3-0.5c0.3,0,0.6,0,0.6-0.6l-0.6,0.1h-0.6c0-0.4-0.3-0.4-0.3-0.1c0,0.3-0.3,0.3-0.3,0.6
		S190.6,166.9,190.9,167.1z M192.8,171.1c0.3-0.4,0.9-0.4,1.2-1.7v-0.3l-0.6-0.6c-0.3-0.3-0.6-0.6-1.5-0.4h-0.3c0-0.2,0-0.2-0.3,0.1
		c0,0,0,0.3-0.2,0.3v0.3c-0.1,0.3,0.2,0.6,0.2,0.6c0,0.6,0.3,0.9,0.9,1.7H192.8z M193.1,137.1L193.1,137.1l-0.1-1h-0.5
		c-0.9-0.1-0.9,0.5-1.2,1.1l0.3,0.3c0.3,0.3,0.3,0.3,0.6,0.3c0.6,0,0.9-1.8,0.9-1.8h0.3L193.1,137.1z M191.1,58.5l0.3,0.6h0.6v-0.6
		l-0.3-0.3C191.4,57.9,191.1,58.5,191.1,58.5z M192,5c0.3,0.3,0.6,0.6,0.9,0.6c0.3,0,0.3,0,0.6-0.3l0.3-0.3
		c-0.3-0.3-0.3-0.9-0.9-0.9h-0.3c-0.3,0-0.3,0.3-0.6,0.3V5z M194,173.8v-0.6c0-0.3,0-0.6-0.6-0.9l-0.3,0.3c-0.3,0.3-0.3,0.6-0.3,0.6
		c0,0.3,0,0.6-0.3,0.6l0.3,0.6c0.3,0,0.3,0,0.6-0.3h0.3L194,173.8z M195,73.5c0-0.3-0.3-0.3-0.3-0.3l-0.3,0.3
		c-0.3,0-0.3,0.3-0.3,0.3l0.3,0.3h-0.3c0,0.3,0.3,0.3,0.6,0.3l0.3-0.3v-0.3C195,73.8,195.3,73.8,195,73.5z M194.6,54.6l0.3,0.3
		c0,0,0,0.6,0.3,0.6l-0.2-0.3v-0.1h1v-0.8l-0.4-0.2h-0.3C195.2,54,194.6,54,194.6,54.6z M195.2,55.9 M197.5,65.8
		c-0.3-0.6-0.9-0.6-1.5-0.9v1.2h0.3l0.3,0.3l0.6,0.3C197.5,66.4,197.5,66.1,197.5,65.8z M198.7,92.1h-0.3c-0.3,0-0.3,0.3-0.3,0.3
		c-0.3,0.3-0.7,0.7-1,0.7v1c0,0.3,0,0.7,0.3,1h1.3l0.3-0.3v-1C199,93.1,199.3,92.4,198.7,92.1z M198.3,24.3c0,0.3,0.3,0.6,0.7,0.6
		v-0.8h1v-0.4C198.7,23.7,198.3,24,198.3,24.3z M199.6,84.1c0-1-0.3-1.3-0.6-1.3c0,0,0,0.3-0.3,0.3l-0.3,0.3c0,0.3,0.3,0.6,0.6-0.3
		h0v1H199.6z M203,86.8c-0.3-0.6-0.9-0.6-1.5-0.7H200v1h-0.4c0,0,0.3,0,0.3,0.3c0.3,0.3,0.3,0.3,0.1,0.9v0.3
		c0.5,0.6,1.1,0.9,1.7,0.9s1.2-0.3,1.2-0.9C203.6,88,203.3,87.4,203,86.8z M201.1,54.7c0.3,0,0.3,0.3,0.6,0.3l0.3-0.3v-0.3l-0.3-0.3
		h-0.3C201.4,54.1,201.1,54.4,201.1,54.7z M205,35.1l0.3,0.3c0.3,0,0.6-0.3,0.6-0.3c0-0.3,0.3-0.3,0.3-0.3l-0.3-0.6
		c-0.3,0-0.6,0.3-0.9,0.3V35.1z M215.4,105.4c0,0,0-0.3-0.3-0.3c0-0.3,0-0.3,0-0.3v-0.6h-1v-0.3l0.1-0.7h-1.2l0.6-0.5l1.5-0.3v0.3
		c0.3-0.6,0-0.9-0.3-1.1c-0.3,0-0.6-0.3-0.6-0.6l-0.3-0.3c-0.9,0-0.9,0.9-0.9,1.4l-0.6,0.3l-0.9,0.6c0,0,0,0.3-0.3,0.3H211l-0.6,0.3
		c-0.3,0.3-0.6,0.6-1.1,0.9c-0.6,0.3-0.9,0.6-1.1,0.9H206v-0.7c-0.2-0.3-0.2-0.6-0.9-0.9l-0.3,0.3c-0.3,0-0.3,0-0.8,0.3v2h1.1
		c0,0,0.3,0.8,0.9,0.5v-0.3c0.1,0,0.1-0.3,0.4-0.6c0.3,0.3,0.6,0.9,0.6,1.4h-0.3l0.3,0.4v0.3c0,0-0.9,0.6-0.6,1.2l0.3,0.3
		c0.3,0,0.6-0.3,0.6-0.3h0.7v1h1.5l0.5-1v-0.6c0.1,0,0.1-0.3,0.4-0.4h0.6c0.3-0.6,2-1.2,2-1.2v-0.6l0.2-1.2h0.8v1h1v-0.7
		c-0.3,0.3-0.3,0.3,0,0.3C215,105.7,215.4,105.7,215.4,105.4z M207,79.7c-0.9-0.3-1.5-0.6-2-0.3v0.9c0.1,0.3,0.5,0.3,0.8,0.3
		c0.3,0,0.3,0,0.3-0.3c0,0,0.3,0,0.9-0.3V79.7z M208.8,95.8l0.3,0.3h0.3l0.3-0.3c0,0,0.3-0.3,0-0.3c0-0.3,0-0.3-0.3-0.3h-0.3
		C208.8,95.4,208.8,95.4,208.8,95.8z M214,88.3l-0.2,0.3c0.3,0,0.6,0,0.9-0.6h0.3c0-0.4-0.3-0.4-0.3-0.7l-0.3-0.3h-0.3l-0.1,0.3
		V88.3z M214.7,93.1h-0.3l-0.3,0.3v0.3l-0.3,0.3c0,0.3,0.3,0.3,0.3,0.3v0.3l0.3,0.3h0.3c0.3,0,0.3,0,0.7-0.3l0.3-0.3
		c0.3,0,0.3-0.3,0-0.7c0,0-0.3-0.3-0.7-0.3C215,93.1,215,93.1,214.7,93.1z M216,98.9v-0.8h-1c-0.3,0.8-0.3,1.1-0.3,1.4
		c0.3,0.3,0.6,0.6,0.9,0.6l1.3-0.3v-0.3C216.3,99.5,216.6,99.2,216,98.9z M217,86.2v-0.3c-1,0-1,0.6-2,0.9v0.6
		c0.7,0.3,1,0.3,1.3,0.7h0.6l0.1-0.7v-0.3C217.2,86.8,217.5,86.5,217,86.2z M218.8,85.2c-0.3-0.9-0.3-1.2-1.5-1.5l-0.3,0.3
		c0,0.3,0,0.6-0.3,0.9l0.3,0.3c0.3,0,0.3,0,0.3,0.8h0.8l0,0h-0.2c0.3-0.2,0.3-0.2,0.3,0h0.3L218.8,85.2z M219,69.1h-1v0.1l0.5,0.9
		h0.5V69.1z M221,91.4v-0.6c-0.4,0-0.4,0-0.4-0.3c-0.3,0-0.3-0.3-0.6-0.6l-0.3,0.3c0,0.3-0.3,0.3-0.7,0.3v-0.3
		c0.4,0.3,0.1,0.3,0.1,0.9H219v0.3l1,0.6l0.3-0.3C220.6,91.7,220.6,91.7,221,91.4z M222,101.1h-0.9l-0.3,0.3c0,0.6,0.6,0.6,0.9,0.6
		l0.3-0.3V101.1z M227,97.9v-0.3c-0.3-0.3-0.9,0-0.9,0.3c0,0-0.3,0.3,0,0.6l0.3-0.3l0.3,0.3C227,98.6,227,98.2,227,97.9z
		 M229.3,143.1l-0.3-0.3v-0.3l-0.6,0.6h0.3l0.3,0.3L229.3,143.1z M232,96.4l0.7-0.3c0-0.3-0.6-0.6-0.9-1h-0.3
		c-0.3,0.7-0.3,1-0.3,1.3l0.3-0.3h0.3c0,0.6,0,0.9,0.3,0.9c0.3,0,0.3-0.3-0.1-0.3V96.4z M234.2,129l-0.3-0.3c0,0,0-0.3-0.3-0.6H233
		l-0.3,0.3c0,0.6-0.3,1.5,0.6,1.5l0.6-0.3C233.9,129.6,234.2,129.3,234.2,129z M233.7,92.4l0.3,0.7h0.3l0.7-0.3v-0.7h-0.7
		C234,92.1,234,92.1,233.7,92.4z M236,98.2v-0.3c-0.3-0.3-0.7-0.3-1-0.3c-0.3,0-1,0-1,0.7v0.3c0,0-0.1,0.3,1,0.3v0.3l-0.5-0.1h0.6
		l0.8,0.1v-0.3C235.8,98.6,236,98.2,236,98.2z M239.3,66.4c0,0.3,0.3,0.3,0.3,0.3l0.3,0.3c0.9-0.3,0.9-0.6,0.9-1.2s-0.3-0.9-0.9-0.9
		c-0.3,0-0.6,0-0.9,0.3v0.3C238.7,65.8,239,66.4,239.3,66.4z M241.4,70.1c0,0-0.3-0.6-1.2-0.3c-0.3,0.3-0.6,0.6-0.6,0.9
		c0.3,0.6,0.9,1.4,0.9,1.4h0.3c0,0,0.6-0.5,0.6-0.8c0,0.3,0.3,0.3,0.6,0.3v-0.5h1v-0.4l-1.3-0.6H241.4z M239.5,87.4l0.6,0.6l0.3-0.3
		c0.3-0.3,0.3-0.3,0.3-0.6l-0.3-0.3C240.1,86.8,239.8,86.8,239.5,87.4z M241,108.8l1-0.3v-0.3c0,0-0.6-0.6-1.3-1h-0.6l-0.1,0.7v0.3
		c-0.2,0-0.5,0.3-0.5,0.6l0.3,0.3h1.2V108.8z M242.3,114.3c0,0,0-0.3-0.3-0.3l-0.3,0.3c-0.3,0-0.6,0.3-0.6,0.6
		c0.3,0,0.3,0.3,0.6,0.3l0.3-0.3C242.3,114.6,242.3,114.6,242.3,114.3z M245,109.4c-0.6,0-0.6-0.3-0.9-0.3c-0.6,0-1.5,0.6-1.5,1.2
		c-0.3,0,0,0.6,1.4,0.9v-0.3c-0.5,0.3-0.2,0.3-0.2,0.3s0.3-0.3,0.3-0.6c0,0,0.3,0,0.3-0.3l0.6,0.3V109.4z M243.8,113.9
		c0-0.3-0.6-0.6-0.9-0.3l-0.3,0.3c0,0.3,0,0.9,0.6,1.2h0.3C243.8,115.1,243.8,114.5,243.8,113.9z M243.5,95.3l0.3,0.3
		c0.3,0,0.6-0.3,0.6-0.3l0.3-0.3c0-0.3-0.3-0.6-0.3-0.6c-0.3,0-0.3-0.3-0.3-0.3h-0.3c-0.3,0-0.3,0.3-0.3,0.6
		C243.2,95,243.5,95.3,243.5,95.3z M245.9,67.9c-0.3-0.6-0.9-0.3-1.2,0l0.3,0.3v0.6l0.3,0.3h0.9C246.2,68.5,246.2,68.2,245.9,67.9z
		 M250.9,91.5c0-0.3-0.9-0.3-0.9,0v0.6h0.6l0.6-0.3C251.2,91.8,251.2,91.5,250.9,91.5z M251.9,24.3l0.3,0.8h0.6l0.3-0.8
		c0-0.6,0-0.9-0.3-0.9c-0.3-0.3-0.3-0.3-0.6-0.3h-0.3C251.3,23.4,251.6,24,251.9,24.3z M253,51.8l-0.3-0.3c0,0,0-0.3-0.3-0.3H252
		c-0.3,0.7-0.3,1.3-0.3,1.7c0.3,0.3,0.7,0.3,1,0.3h0.3l-0.3-0.7c0.3,0,0.3,0,0.3,0.3v-0.3C253,52.4,253.3,52.1,253,51.8z M252,21.7
		c0,0,0.3,0.3,0.7,0.3l0.3-0.3v-0.3l-0.3-0.3H252V21.7z M253.1,20.1h0.6l0.3,1h0.3c0,0,0.3-1.4,0.3-2h0.3V19c0,0-1.3-0.6-1.9-0.6
		l-0.1,0.3V19C252.8,19.3,252.5,20,253.1,20.1z M255,28.1c0-0.7-0.3-0.7-0.7-1h-0.7l-0.3,0.3c0,0-0.3,0-0.3,0.3v0.3h0.3
		c0,0.3,0.3,0.7,1,0.7L255,28.1z M254.7,35.4c0,0,0.3,0.3,0.3,0.3v0.6c0.6,0,0.9,0.3,1.2,0.3c0.3,0,0.6-0.3,0.9-0.6
		c0-0.3,0-0.9-0.3-1H256v-0.6c-0.4,0.3-0.4,0-0.4,0c-0.3,0-0.3-0.3-0.6-0.3c0,0-0.3,0-0.3,0.9h-0.3
		C254.3,35.1,254.7,35.1,254.7,35.4z M255,29.7c0.3,0.3,0.3,0.3,0.6,0.3c0.3,0,0.3,0,0.6-0.3l-0.3-0.3c0,0-0.3,0-0.3-0.3H255V29.7z
		 M257,93c0.1-0.3,0.1-0.6,0.1-1.2l-0.3-0.3c-0.6-0.3-0.9-0.3-1.5,0l-0.3,0.3c0,0.6,0,0.9,0,0.9V93l0.6,0.1h1.4V93z M256.5,49.8
		l-0.3-0.3c-0.3-0.3-0.3-0.3-0.6-0.3c0,0-0.3,0-0.3,0.6l0.3,0.3h0.6C256.2,50.1,256.5,50.1,256.5,49.8z M256,58v-0.3
		C255.7,57.1,255.4,58,256,58z M256.8,58.8l0.3,0.3h0.3c0.6,0,0.6-0.6,0.6-0.9l-0.3-0.3C257.1,57.9,256.8,58.2,256.8,58.8z
		 M258.4,142.8c0-0.3,0.3-0.3,0.3-0.6l-0.3-0.3c0,0,0-0.3-0.3-0.3c0,0-0.3-0.3-0.6-0.3l-0.3,0.6c0,0-0.3,0-0.3,0.3
		c0.3,0,0.3,0.3,0.3,0.3c0,0.3,0.3,0.6,0.6,0.6h0.3L258.4,142.8z M258.4,135.5c0-0.3-0.3-0.3-0.6-0.3c-0.3,0-0.3,0.3-0.3,0.6
		l0.3,0.3h0.6l0.3-0.3L258.4,135.5z M259.6,194.1l-0.3-1h-0.6l-0.7,0.8v0.3c0.1,0,0.1-0.3,0.1-0.3l-1.1,0.3v0.3c0,0,0.4,0.3,0.7,0.6
		l0.3,0.3v-0.3h1v-0.6c0.3,0,0.3-0.4,0.3-0.4H259.6z M261,91.1v-0.3c0-0.3-0.3-0.3,0-0.3l-0.3-0.6c-0.3,0-0.9,0-1.2,0.3
		c-0.3,0.3,0,0.9,0,0.9l0.6,0.6c0.3,0,0.3-0.3,0.6-0.3L261,91.1z M263,166.7v-0.6h-0.3c-0.3,0-0.6,0.3-0.6,0.6s0,0.6,0.3,0.6
		L263,166.7z M264.9,173.5l-0.3-0.3c0.3,0,0.3-0.3,0-0.3l-0.3-0.3c-0.3-0.3-0.3-0.3-0.6-0.3l-0.3,0.3c-0.3,0.3-0.6,0.9-0.3,1.5h0.3
		c0,0,0.3,0.3,0.6,0.3c0.3,0,0.6-0.3,0.6-0.6C264.6,173.8,264.9,173.8,264.9,173.5z M265,1.4c0-1-1-1.3-1.7-1.3H263
		c0,1,0,1.3,0.3,1.7l0.3,0.3h0.3c0.3,0,0.7,0,1-0.3V1.4z M265.2,68.1h0.3c0,0,0.3,0.8,0.6,0.8c0.3,0,0.6-0.3,0.6-0.3l-0.3,0.6h0.6
		v-2h-0.9l-0.6,0.5C265.5,67.9,265.2,68.1,265.2,68.1z M266.5,168.8c0-0.9-0.9-1.2-1.2-0.9c-0.3,0.3-0.3,0.6-0.3,0.9v0.3h1.2
		L266.5,168.8z M266,21.2c-0.2,0.6,0.4,0.9,0.7,0.9c0,0.3,0.3,0.6,0.3,0.6v0.6l0.3,0.3c0.3,0,0.6-0.6,0.6-0.9c0-0.3,0-0.9,0-0.9
		v-0.3c0,0,0.3-0.3,0-0.7c-1-0.7-1.7-0.7-2,0V21.2z M266,152.1c0.1,0.3,0.1,0.3,0.4,0.3c0,0,0.3-0.3,0.6-0.3v-1h-1V152.1z M268,45
		l-1,0.3V45c0.3,0,0.3-0.3-0.3,0.1h-0.3l-0.3-0.1c0,0.6,0.3,0.9,0.3,0.9c0.3,0.3,0.3,0.3,0.3,0.6l0.3,0.3c0.3,0,0.3,0.3,0.3,0.3
		l0.3-0.3l0.3,0.3l0-0.6v-1.2C268.3,45.3,268.3,45,268,45z M266.9,88c0-0.3,0-0.6-0.3-0.9l-0.6,0.3V88l0.3,0.3
		C266.6,88.3,266.9,88,266.9,88z M268,24.1h-0.3l-0.3,0.2c0,0.3,0,0.6,0.3,0.8h0.3c0.3-0.2,0.3-0.5,0.3-0.5L268,24.1z M268,162.4
		l-0.3-0.3h-0.3l-0.3,0.3v0.3c0,0,0,0.6,0.3,0.6l0.3-0.3c0,0,0.3,0,0.3-0.3V162.4z M272.6,156.7c-0.3-0.6-0.6-1.5-1.9-1.6h-0.3
		l-0.4,0.4v0.6c0,0.3-0.3,0.3-0.3,0.3c0-0.6,0-0.6,0.3-0.9V155l-0.3-0.3c0,0,0-0.3-0.3-0.6h-0.9l-0.6,0.3l-0.3,0.3
		c0,0.3,0,0.6,0.6,0.9c-0.3,0-0.3,0.3-0.3,0.6h-0.3c0.3,0,0.3,0.3,0.3,0.3l0.3,0.7h0.3l0.3-0.3v0.6c0,0,1.7,0.3,2.1-0.2h0.9l0.3,0.2
		L272.6,156.7z M269.2,81.5l0.6,0.6h0.6c0.3-0.6,0.3-0.9,0.3-1.2l-0.3,0.2h-0.9C269.2,80.9,269.2,81.2,269.2,81.5z M273,22.5V22
		c-0.3-0.3-0.6-0.9-1.1-0.9h-0.3l-0.6,0.6v1.1l0.3,0.3h1.4L273,22.5z M275.1,196.9c0-0.6-0.3-0.9-0.6-1.9h-0.6
		c-0.3,0.6-0.6,0.9-0.6,1.9l0.6,0.3c0-0.3,0,0,0.3-0.2h0.6L275.1,196.9z M273.3,78.1l-0.3,0.3v0.7h0.7l0.3-0.3v-0.3l-0.3-0.3H273.3z
		 M274.6,159.7c0-0.3-0.3-0.6-0.3-0.6H274v0.9C274.3,160,274.6,160,274.6,159.7z M275.1,86.5c0.3,0.6,0.9,0.9,1.5,1.2l0.3-0.6h0.3
		c0.3,0.9,0.3,0.6,0.3,1h0.3l0.3-1c-0.3,0-0.3,0-0.2-0.3v-0.6c-0.4-0.3-0.8-0.3-1.1-0.3l-0.6-0.6c-0.3,0-0.3,0.3-0.3,0.3
		C275.7,85.6,275.1,85.6,275.1,86.5z M277.6,186.2c0,0,0-0.3,0.3-0.6c-0.3-0.6-0.6-0.9-1.2-0.9s-1.5,0.3-1.5,1.2l0.3,0.3
		c0.3,0,0.3,0.3,0.6,0.9h0.3C277.2,187.1,277.2,186.8,277.6,186.2z M275,37.5c0.3,0.3,0.6,0.6,0.9,0.6h0.3l0.3-0.3
		c0-0.3,0-0.9-0.3-1.2c-0.3,0-0.3-0.3-0.6-0.3l-0.6,0.6V37.5z M275.3,99.2l-0.3,0.3v0.6h0.6l0.3-0.3
		C275.9,99.5,275.6,99.2,275.3,99.2z M275.7,9.1l0.3,0.3c0,0.3,0.3,0.6,0.6,0.6c0,0,0.3,0,0.3-0.3l-0.3-0.6c0-0.3,0-0.3-0.3-0.3
		C276,8.8,276,8.8,275.7,9.1z M277.2,41.6c-0.6,0-0.6,0.6-1.2,0.9v0.3c0.6,0.3,0.6,0.3,0.9,0.2h0.1v-0.2c0.9,0,0.9-0.3,0.9-0.3
		l-0.3-0.3L277.2,41.6z M278,145.9v0.3l0.3-0.3c0.3-0.6,0-0.9,0-1.2c-0.3,0-0.3-0.3-0.6-0.3c-0.3,0-0.6,0.3-0.9,0.6
		c0,0.3,0,0.9,0.6,1.2L278,145.9z M279.5,103.4l-0.3-0.3h-0.6c-0.6,0-0.9,0-1.5,0.3v0.3c0.3,0.6,0.6,0.9,0.9,0.9
		C278.5,104.6,279.2,104,279.5,103.4z M278,11.9v0.3c0,0-0.4,0.9,0.2,1.2l0.6-0.6c0,0,0.3-0.3,0.3-0.6l-0.1-0.3v-0.3l-0.5-0.5H277
		v0.5L278,11.9z M277,128.5v0.3c0.3,0,0.3,0.3,0.7,0.3h0.3v-0.6c0,0-0.3-0.6-1-0.6c0,0-0.3,0-0.3,0.3L277,128.5z M279,143.7v-0.6
		h-0.5c0-0.3-0.9-0.3-1.5,0v0.3c0.2,0.3,0.2,0.6,0.6,0.7h0.3c0.3,0.3,0.3,0.3,0.6-0.1C278.5,144,278.8,144,279,143.7z M280,37.1
		v-0.3l-0.3-0.3c0-0.3,0-0.3-0.3-0.3l-0.3,0.3v0.3l0.3,0.3H280z M279,202.5c-0.2-0.3-0.5-0.9-0.8-0.9c-0.3,0-0.6,0-0.2,0.3v0.2h-0.1
		c0,0.7,0.3,1,0.6,1l0.5-0.3V202.5z M278.8,19c0,0.3,0.3,0.9,0.3,0.9c0.3,0.3,0.6,0.3,0.9,0.3c0.3,0,0.6,0,1-0.3v-0.3
		c0-0.3-0.4-0.6-1-0.6v0.1h-0.9L278.8,19z M280.6,170l-0.3,0.1H280c0-0.4-0.3-0.7-0.6-0.7l-0.4,0.3v0.6c0.1,0.3,0.4,0.3,1,0.3v0.3
		C280.3,171,280.6,170.6,280.6,170z M280.3,32.4c0,0,0-0.3-0.3-0.3h-0.3c-0.3,0.3-0.3,0.6-0.3,0.6c0,0.3,0.3,0.6,0.6,0.6
		c0.3,0,0.6,0,0.6-0.3L280.3,32.4z M280.5,13.8l0.3,0.3h0.9l0.3-0.3v-0.9c-0.3,0-0.6-0.3-0.9-0.3c-0.3,0-0.6,0.3-0.6,0.3
		C280.5,13.2,280.1,13.5,280.5,13.8z M282,160.4l-0.1-0.3H281c-0.3,0-0.3,0.7-0.3,1c0.3,0,0.3,0.3,0.6,0h0.6l0.1,0V160.4z
		 M282,149.7v-0.3l-0.3-0.3h-0.3l-0.3,0.3c0,0-0.3,0.3,0,0.6c0,0,0,0.3,0.3,0.3L282,149.7z M282.8,85.1h0.3c0.3,0,0.7-0.3,0.7-0.7
		l-0.3-0.3h-0.7l-0.3,0.3C282.5,84.4,282.5,84.8,282.8,85.1z"/>
	<path d="M345.3,122.1H339v0.6c-1.4,0.6-2,2.8-2,2.8v85.4c0,3.4-2.8,6.2-6.2,6.2h-15.6c-3.4,0-6.2-2.8-6.2-6.2v-2.8h1
		c0-0.7,0-1.7-0.3-2H309V6.3c0-3.4,2.8-6.2,6.2-6.2h43.1c17.5,0,30.6,12.2,31.5,29.6c0-0.3-0.3-0.6-0.3-0.6h-0.8l-0.3,0.1
		c0,0.3-0.3,0.3,0,0.6l0.3,0.2h0.3l0.1-0.2v-0.3c0.3,0.9,0.6,1.5,0,2.2v0.9l0.3-0.6h-0.3l-0.9,0.6V33v0.3v0.3l2-0.6v1.5l-1.1,0.3
		c0,0-0.3,0.3-0.3,0.6l0.3-0.3h1.1v43c-0.4,0.9-0.7,1.9-0.7,3.1c0-0.3-0.3-0.3-0.6-0.3c-0.3,0-0.6,0.3-0.9,0.6l0.3,0.3v0.6l0.3,0.3
		l0.6-0.3l0.3-0.3C387.4,105.4,345.3,122.1,345.3,122.1z M309,22.4l0.3,0.3c0.6,0,0.9-0.3,0.9-0.6c0-0.3-0.3-0.6-0.6-0.6l-0.6,0.3
		V22.4z M310.2,102c0,0,0-0.3,0.3-0.3l-0.6-0.6h-0.3l-0.6,0.3v0.3c0.3,0,0.3,0.3,0.3,0.3c0.3,0,0.3,0.3,0.6,0.3L310.2,102z
		 M310.9,156.5c0-0.3-0.3-0.3-0.3-0.3l-0.6,0.3v0.6h0.3C310.6,157.1,310.9,156.8,310.9,156.5z M311.6,16.1c0.3-0.2,0.3-0.5,0.3-0.8
		l-0.3-0.2H311l-0.3,0.2c0,0.3,0.3,0.9,0.6,0.8H311.6z M312.8,51.4l-0.3-0.3h-0.6c-0.3,0.3-0.3,0.6-0.3,0.6c0.3,0.3,0.3,0.3,0.6,0.3
		c0.3,0,0.3,0,0.3-0.3C312.8,51.7,312.8,51.7,312.8,51.4z M314,155.1h-0.7l-0.3,0.3v0.6l0.3,0.3c0.3,0,0.7-0.3,0.7-0.3V155.1z
		 M314.1,38.1h0.6l-0.7-0.2v-0.3c1.3,0,1.3-0.3,1.3-0.6l-0.3-0.3v0.4l0,0v-0.4l-0.9,0.3c-0.3,0-0.3,0.6-0.3,0.9L314.1,38.1z
		 M314.1,148.1h0.6c-0.3,0-0.3,0.3,0.3,0.6l0.3-0.3c0,0,0-0.3,0.7-0.3v-0.9l-1-0.3v0.3h-0.6C314.4,147.4,314.1,147.4,314.1,148.1z
		 M315.9,187.7l-0.3-0.6c-0.3,0-0.6,0-0.6,0h-1v1h1v0.5c0,0-0.6,0-0.6,0.6l0.6,0.3c0,0,0,0.6,0.6,0.6l0.3-0.3c0.3-0.3,0-0.6,0.1-0.9
		v-0.8h-0.1l0.3,0.2C316.2,188,315.9,187.7,315.9,187.7z M316.9,5c0,0,0.3-0.3,0-0.6l-0.3-0.3h-0.3L316,4.4V5
		c0.3,0.3,0.3,0.3,0.6,0.3L316.9,5z M317,87.1v0.6c-0.2,0-0.5,0.3-0.2,1.4h1.2l0.9-0.8V88c-0.6,0-0.3-0.3-0.3-0.6l-0.6-0.6
		c-0.3,0-0.3,0-0.6,0.3C317.5,86.8,316.8,86.8,317,87.1z M317.9,110.9c0-0.6-0.3-0.6-0.6-0.6l-0.3,0.3v0.3c0,0,0,0.3,0.3,0.3
		L317.9,110.9z M319,109.1l0.3-0.3c0-0.3,0-0.7-0.7-0.7h-0.3c0,0-0.3,0-0.3,0.3v0.7H319z M318.7,115.6l-0.3,0.3
		c-0.3,0.9,0.3,0.9,0.3,0.9l0.6-0.3C319.3,115.9,318.7,115.6,318.7,115.6z M320,32.8v-0.3c-0.3-0.3-0.3-0.3-0.7-0.3l-0.3,0.3v0.6
		h0.7L320,32.8z M319,8.8c0.3,0.3,0.3,0.6,0.9,0.3h0.1v0c0.9-0.3,0.6-0.3,0.6-0.6c0,0-0.6-0.3-1.6,0V8.8z M320.2,13.2
		c-0.3-0.3-0.9-0.3-1.2,0v0.3l0.9,0.6l0.3-0.3C320.5,13.5,320.2,13.5,320.2,13.2z M320.9,195.1c0,0,0.3-0.3,0.3-0.6
		c0-0.3,0-0.6-0.3-1.4h-0.3c-0.6,0.4-0.6,0.8-0.9,1.1c0,0.6,0.3,0.9,0.9,0.9H320.9z M320.6,69.1h-0.3l-0.3-0.2v0.3l0.3-0.1H320.6
		l0.3,0.7c0.3,0,1.1-0.6,1.1-0.6v-0.1h-0.8C321.2,68.5,320.6,69.1,320.6,69.1z M320,114.6v0.3c0,0,1.2-0.6,1.2-0.9H320v1l0,0l0,0
		h0.3L320,114.6z M321.2,108.1c0.3-0.3,0.3-0.3,0-0.6c0-0.6-0.9-0.6-1.2-0.3v0.6c0.3,0.3,0.6,0.3,0.6,0.3H321.2z M320.3,23.4
		c0,0.7,0.7,1.3,1.7,1.3c0.3,0,0.7-0.3,1-0.7v-0.3c0.3-1-0.7-1.3-1-1.7c-0.3,0-0.3,0-0.3-0.3L321,22v0.3
		C320.7,22.7,320.3,23,320.3,23.4z M322.1,204.7c0-0.3-1.1,0-1.1,0v0.3c0,0-0.1,0.3,1,0.6v0.5h-1v0.1c0.8,0,1.1-0.3,1.1-0.6
		C322.4,205.3,322.4,205,322.1,204.7z M321.8,213.5c0-0.3-0.3-0.3-0.6-0.3l-0.3,0.3c0,0.3,0,0.6,0.6,0.6h0.3
		C322.1,213.8,322.1,213.5,321.8,213.5z M322.7,82.8c0.3,0,0.3-0.3,0.3-0.3v-0.6c0-0.3,0-0.3-0.3-0.6c-1-0.3-1.7,0.3-1.7,0.6v0.3
		c0,0.3,0.3,0.6,0.7,0.9h0.3C322.3,83.1,322.3,82.8,322.7,82.8z M323.2,141.4l-0.3-0.3c0,0-0.3-0.6-0.9-0.3v0.3h-0.3l-0.3,0.3
		c0,0.3,0.3,0.6,0.6,0.6l0.3-0.3C322.6,142,323.2,142,323.2,141.4z M321.5,116.8l0.3,0.3h0.3c0.3,0,0.3-0.6,0.3-0.9
		c0-0.6-0.3-0.9-0.6-0.6C321.5,115.9,321.5,116.2,321.5,116.8z M323.3,57.7c0.3-0.3,0.9-0.3,0.7-0.9v-0.3c0,0-0.3-0.3-0.7-0.3
		s-0.6,0.3-0.6,0.6l0.3,0.3v0.3L323.3,57.7z M325,204.7l-0.7-0.6H324c-0.3,0.3-0.6,0-0.6,0H323c0,0.3-0.3,0.3-0.3,0.7l0.3,0.3h0.3
		h0.3h0.6l0.7-0.1V204.7z M323.3,34.5c-0.3,0.3-0.3,0.6-0.3,0.6c0,0.3,0,0.6,0.3,0.9h0.9l0.3-0.6C324.6,34.9,323.7,34.5,323.3,34.5z
		 M325,184.3c1,0,1.3-0.6,2-1.2v-0.6c-0.3-0.3-1-0.3-1.3-0.3H325l-0.3,0.3c0,0-0.3,0-0.3,0.3c0,0-0.3,0.3-0.3,0.6v0.3
		C324.3,184,324.7,184.3,325,184.3z M324.6,149l0.4,0.3v0.3c0.2,0,0.2-0.3,0.2-0.5h0.9c0-0.1,0-0.1,0.3-0.1l0.3-0.3l-0.3-0.6h-0.3
		C324.9,148.1,324.6,148.7,324.6,149z M325,63.6l0.2,0.3c0,0-0.3,0-0.2,0.3v0.3c0.2,0,0.2,0.3,0.5,0.3s-0.5-0.9-0.5-0.9v-0.6l1-0.6
		l0,0l0.1-0.3c0-0.3,0-0.6-0.3-0.6l-0.3-0.6h-0.3l-0.3,0.6c0,0.3,0.3,0.6,0.3,0.4h0.3L325,63V63.6z M325.2,65.1h-0.3
		c0,0.3,0,0.6,0.3,1.2l0.6-0.3C325.8,65.4,325.5,65.1,325.2,65.1z M326,158.9l-0.2,0.6l0.3-0.3c0.6-0.3,1.2-0.6,0.9-2.1h-0.3
		c-0.6-0.1-0.9,0.2-0.8,0.2v0.3l-1.1,0.3c0.3,0,0,0,0.1,0.3v0.6l0.2,0.2h0.8V158.9z M326.4,206.4l-0.3-0.3h-0.9l-0.3,0.3v0.3
		c0,0.6-0.3,0.9,0,1.1c0.3,0.3,0.3,0.3,0.6,0.3h0.3C326.1,207.5,326.4,207,326.4,206.4z M325.5,50.8c0,0.3,0.3,0.3,0.3,0.3h0.3
		l0.3-0.3c0-0.6-0.3-0.6-0.6-0.9l-0.6,0.3C325.2,50.5,325.2,50.8,325.5,50.8z M325.5,5.4l0.3-0.3h-0.3l0.3,1h0.3
		c0.3-0.1,0.3-0.4,0.3-0.7c0-0.3-0.3-0.3-0.6-0.3C325.8,5.1,325.5,5.1,325.5,5.4z M326.6,6.7c0,0,0-0.3-0.3-0.3L326,6.7v0.6l0.3,0.3
		l0.3-0.3c0.3,0,0.3,0,0.3-0.3L326.6,6.7z M328.6,202.2c0,0,0-0.3-0.3-0.3c0-0.3,0.7-0.6,0.7-0.6v-0.2h-1.6l-0.3-0.4l-0.3,0.4h-0.3
		l-0.4,0.2v0.9c0.1,0-0.2,0-0.2,0.3c0,0.6,0.3,1.2,0.3,1.5c0.3,0,0.3,0,0.3,0h1.2l0.3,1h0v-2.6L328.6,202.2z M326,12.5v0.9
		c0.4,0,0.4,0.3,0.8,0.3c0,0,0.3,0,0.3-0.3l-0.1-0.3v-0.6C327.1,12.2,326.4,12.2,326,12.5z M329.3,190.4l-0.3-0.3h-0.7
		c-0.7,0-1,0.7-1,0.7l0.7,0.3h1C329,190.8,329.3,190.8,329.3,190.4z M328,132.3c0,0.3,0.3,0.3,0.6-0.2h0.3c0,0.2,0.3-0.1,0-0.4
		c0-0.3-0.3-0.3-0.6-0.6H328V132.3z M328.6,54.3l0.3-0.2h0.3l0.3,0.2c0.3,0,0.3-0.3,0.3-0.3l-0.3-0.3c0,0-0.3,0-0.3-0.6h-0.3
		l0.1,0.6V54C328.6,54,328.3,54,328.6,54.3z M328.9,25.1h0.3c0.3,0,0.3-0.3,0.3-0.6c0,0,0-0.3-0.3-0.3l-0.6,0.3
		C328.6,24.5,328.6,24.8,328.9,25.1z M329,132.6v-0.5h0.2L329,132.6c-0.1,0.3,0.2,0.6,1,0.6v-0.1l0,0v0.1
		C330.5,133.2,329,132.6,329,132.6z M330,176.5v-0.3c-0.2-0.3-0.5-0.3-0.8-0.3l-0.2,0.3v0.3l0.2,0.3
		C329.5,176.8,329.8,176.8,330,176.5z M330.3,66.9l-0.3,0.3v0.3c0,0.3,0,0.6,0.3,0.6h0.3c0.3-0.3,0.3-0.6,0.3-0.6
		C330.9,67.2,330.6,66.9,330.3,66.9z M331.9,105l-0.3-0.3c0-0.3,0-0.9-0.6-0.6h-0.3l-0.3,0.3c0,0.3,0,0.3-0.3,0.3v0.6
		c0.3,0.3,0.6,0.3,0.9,0.3C331.2,105.6,331.5,105.6,331.9,105z M332,85.1h-0.6l-0.4,0.2v0.6c0.1,0,0.4,0,0.1,0.3l0.3,0.9h0.3
		c0.3-0.6,0.6-1.2,0.6-1.5L332,85.1z M331,57.4l0.6,0.6l0.3-0.3c0.3-0.3,0.3-0.6,0-0.9l-0.3-0.3c-0.3,0-0.3,0.3-0.6,0.3V57.4z
		 M332.3,68.2l0.6-0.1h0.3l0.8-0.8V67c-0.8-0.6-1.4-0.9-1.4-0.9H332v-0.3l1,0.3v0h-1.3c-0.3,0-0.3,0.6-0.7,0.9v1.1h1
		C332,68.2,332.3,68.2,332.3,68.2z M334,169.8c0-0.3,0-0.7-0.3-0.7H333v0.7c0,0.3,0.3,0.3,0.3,0.3h0.3L334,169.8z M334.5,167.2
		c0,0-0.3-0.3-0.6-0.3l-0.3,0.6c0,0.3,0,0.6,0.6,0.6h0.3C334.5,168.1,334.8,167.5,334.5,167.2z M334.2,87.4l-0.2-0.3v0.3
		c0.5,0,0.8,0,1-0.3v-0.3l-0.2-0.3c-0.3,0-0.9,0.3-0.9,0.6C333.9,87.1,333.9,87.4,334.2,87.4z M334.8,108.8c0,0.3,0.3,0.3,0.3,0.3
		h0.3l0.3-0.3c0-0.3,0-0.3-0.3-0.6c0,0-0.3-0.3-0.6-0.3l-0.3,0.3C334.5,108.5,334.5,108.8,334.8,108.8z M335.1,43.2l0.3-0.1
		L335.1,43.2c0.3,0.6,0.3,0.9,0.6,0.9h0.3l0-0.3v-0.9l0-0.3C335.7,42.5,335.4,42.9,335.1,43.2z M336,171l0,0.1h-0.6L335,171v0.6
		c0.1,0.3,0.4,0.3,0.7,0.5h0.3l0-0.5V171z M337,109.1c-0.3-0.3-0.3-0.3-0.6-0.3c-0.3,0-0.6,0.6-0.6,0.9c-0.3,0.3,0,0.6,0.6,0.9
		l0.3-0.3c0.3-0.3,0.3-0.3,0.3-0.6V109.1z M355.8,94.1c3.4,0,6.2-2.8,6.2-6.2V34.3c0-3.4-2.8-6.2-6.2-6.2h-12.6
		c-3.4,0-6.2,2.8-6.2,6.2v17.8h-0.3c-0.3,0-0.3,0.3-0.3,0.6s0.3,0.3,0.6,0.6v34.6c0,3.4,2.8,6.2,6.2,6.2H355.8z M341.9,102.3
		c0-0.3-0.3-0.6-0.6-0.6L341,102v0.6l0.3,0.3C341.6,102.9,341.9,102.6,341.9,102.3z M343.7,95.1c0-0.3-0.3-0.3-0.3-0.3
		c-0.3,0-0.3,0-0.7,0.3l-0.3,0.3c0.3,0.3,0.3,0.3,0,0.7c0,0-0.3,0-0.3,0.3l0.3,0.3c0,0.3,0,0.3,0.3,0.3h0.3l0.3-0.3
		c0-0.3,0-0.7,0.7-0.7v-1H343.7z M342,120.5v0.3C342.6,121.1,342.6,120.2,342,120.5z M346,26.1c0.2,0.3,0.6,0.3,0.9-0.1h0.3l0.3,0.1
		c0-0.6-0.6-0.6-0.6-1.1H346V26.1z M353.4,99.5l-0.3,0.3c0,0-0.3,0-0.3,0.3l0.3,0.3c0.3,0,0.9-0.3,0.9-0.6
		C354,99.8,353.7,99.5,353.4,99.5z M357.7,119.1H357v0.3c0,0.6,0.3,0.9,0.7,0.9l0.3-0.3v-0.3C358,119.7,358,119.4,357.7,119.1z
		 M360.2,117.1c0-0.3-0.3-0.6-0.2-0.6v-0.3l-0.5-0.3c-0.6,0.3-1.2,0.3-1.5,0.9v0.3h0.3l0.3,0.6c0,0,0.3,0.3,0.6,0.4h0.3
		c0-0.4,0-0.4,0.3-0.7L360.2,117.1z M358.7,22.8l0.3,0.3h0.7l0.3-0.3v-0.6c-0.3,0-0.3-0.3-0.7-0.3l-0.3,0.3v0.3L358.7,22.8z
		 M362,103.4l-0.3-0.3h0.3c-0.3-0.3-0.3-0.7-0.7-0.7l-0.3,0.3c-0.3,0.3-0.7,0.3-0.7,1l0.3,0.3h1l0.3-0.3V103.4z M362,1.7l0.3,0.3
		c0.6,0,0.6-0.3,0.6-0.6l-0.3-0.3H362V1.7z M362.6,6.9L362,7.2v0.3l0.3,0.6h0.3l0.3-0.3C362.9,7.5,362.9,7.2,362.6,6.9z M364,94.1
		h-0.3c0-0.3-0.3-0.3-0.3-0.3c-0.6,0-0.9,0.6-0.9,1.2l0.3,0.3c0.3,0,0.9,0,1.2-0.3V94.1z M364.2,42.2c0-0.3-0.3-0.3-0.6-0.3
		c-0.3,0-0.6,0.3-0.6,0.3l0.3,0.3c0,0.3,0.3,0.3,0.3,0.3c0,0.3,0.3,0.3,0.3,0.3h0.3l0.3-0.3C364.5,42.5,364.5,42.5,364.2,42.2z
		 M365.1,23.1l-0.3-1H364l0,0h0.2l-0.2,0v-0.6c0.5-0.3,0.8-0.3,0.5-0.9c-0.3-0.3-0.3-0.6-0.6-0.6l1.1,0.3v0.9c0,0-1.7,0.9-1.4,1.5
		c0,0.3,0,0.6,0.4,0.6v0.7h0.5C364.8,23.4,365.1,23.4,365.1,23.1z M366.7,27l0.3-0.3v-0.3l-0.3-0.3h-0.6l-0.3,0.3
		C365.8,27,366.4,27,366.7,27z M366.1,53.1h0.3c0.3,0,0.6-0.6,0.6-0.6v-0.6c-0.3,0-0.3,0-0.6-0.3l-0.3,0.3c0,0.3-0.3,0.3-0.3,0.9
		L366.1,53.1z M365,20.1L365,20.1h1.7c0.3,0.5,0.6,0.5,1.3,0.2V20c-0.4-0.3-0.4-0.6-0.7-0.9c-0.3-0.3-0.6-0.6-0.9-0.6l-1.4,0.3v0.4
		h1v1H365z M366.9,85.2c0.6-0.3,0.9-0.9,0.9-1.2c0-0.6-0.6-1.2-1.2-1.2c0,0-0.3,0-0.6,0.3v0.3c-0.3,0.6,0.3,1.2,0.6,1.5L366.9,85.2z
		 M368,77.5v0.3c0.5,0,0.8-0.3,0.8-0.6l-0.8-0.3v-0.6V76v0.3l-0.1-0.2h-1.2l-0.3,0.5c0.3,0,0.3,0.3,0.3,0.6c0,0.3,0,0.6,0.3,0.9h0.9
		L368,77.5z M368.6,95.2l-0.3-0.3c0-0.3,0-0.3-0.6-0.3c-0.3,0-0.6,0.3-0.6,0.6l-0.3,0.3l0.3,0.3c0.3,0.3,0.3,0.3,0,0.6l0.3,0.6h0.6
		v-0.3c0-0.3,0-0.3,0.3-0.6C368.6,96.2,368.9,95.9,368.6,95.2z M368.2,99.8c0,0-0.3-0.6-0.6-0.6l-0.3,0.3c0,0-0.3,0-0.3,0.3l0.3,0.3
		h0.6L368.2,99.8z M367.6,46.9l0.4-0.6v0.3v-0.6v-0.6l0.2-0.3l-0.3,0.1h-0.3l-0.3,0.5c-0.3,0.3,0,0.6,0,0.6L367.6,46.9z M367.4,23.5
		l0.6,0.3v0.3l0.6-0.3c0,0,0,0.3-0.3,0.3h0.6l0.3-0.3c0-0.3,0-0.6-0.3-0.6C368.6,22.5,367.7,22.5,367.4,23.5z M369.1,92.4l-0.3-0.3
		h0.3c0-0.4-0.3-0.7-0.6-1h-0.3c-0.3,0.6-0.3,0.6-0.3,1c0.3,0.3,0.3,0.6,0.6,0.6l0.5-0.3v0.3L369.1,92.4z M370,37l-0.5-0.3
		c-0.3,0-0.3,0.4-0.3,0.4h-0.3l0.2-0.4v0.6c-0.8,0.3-0.8,0.6-0.5,1.2l0.3-0.3c0,0.3,0.3,0.3,0,0.3l0.6,0.6h0.6l-1.1-1.2V37l1-0.3V37
		z M369.2,35.1h-0.3c-0.3,0.3-0.3,0.7,0,1h0.7C369.5,35.8,369.5,35.4,369.2,35.1z M370.1,46.3c0-0.3,0.3-0.3,0.3-0.6l-0.6-0.3
		c-0.3,0-0.6,0.3-0.9,0.6c-0.3,0.6-0.3,1.2,0,1.9l0.3,0.3c0.3,0,0.3-0.3,0.3,0h0.5v-0.9l1-0.3v-0.3
		C370.4,46.3,370.4,46.3,370.1,46.3z M369.5,50.1h0.3c0.3-0.3,0.3-0.6,0.3-0.9c-0.3-0.3-0.6-0.6-0.9-0.3l-0.3,0.3
		C368.8,49.2,368.8,50.1,369.5,50.1z M368.8,87l0.3,0.3c0.6,0,0.9-0.3,0.9-0.9l-0.3-0.3h-0.6C368.8,86.4,368.8,86.7,368.8,87z
		 M370.7,107.8c0-0.3-0.3-0.6-0.7-0.6l-0.7,0.3l-0.3,0.3v0.6l0.3,0.3c0.3,0,0.7,0,0.7-0.3v-0.3h0.3L370.7,107.8z M371.7,14.1
		c0-0.3,0.3-0.3,0.3-0.3s0.3,0,0.3-0.3c0,0.3,0.3,0.3,0.3,0.3l0.3-0.3v0.3l1-0.3v-0.4h-0.2c0-0.6-0.3-0.9,0.2-1.2v-0.6l-0.8-0.3
		c-0.6,0-0.9,0.3-1.2,0.3c-0.3,0.3-0.6,0.3-0.6,0.6l-0.3,0.3c0.3,0.3,0,0.6,0,0.6v0.9L371.7,14.1z M371.8,9.4
		c0.3,0.3,0.3,0.6,0.3,0.6c0.3,0,0.3,0.3,0.3,0.3L373,10V9.1h-0.3l-0.3-0.3c-0.3,0-0.3,0.3-0.3,0.3L371.8,9.4z M372.9,22.1h0.3
		l0.6,1h0.2v-1.6c0.7-0.6,0.4-0.9,0.4-1.2c-0.3-0.3-0.6-0.3-1.2-0.3c-0.6,0-0.9,0-1.2,0.3v0.6C371.9,21.5,371.9,22.1,372.9,22.1z
		 M373.8,32.1h0.3l0.3-0.1c0.3-0.3,0.6-0.9,0.3-1.9h-0.3c0,0.7-0.4,0.4-0.4,0.4v0.3l-0.2-0.3l-0.3,0.3c0,0.3-0.3,0.6-0.6,0.6
		l0.3,0.7H373v0.2c-0.1,0-0.1,0.3,0.2,0.3S373.8,32.1,373.8,32.1z M375.3,39.4c-0.3,0-1,0.3-1,0.7h-0.6l0.2,0.6V41
		c-0.5,0-0.2,0.3-0.2,1.1h1.2v-0.7l0.3-0.3h0.3c0.3,0,0.7,0,0.7-0.3l-0.3-0.7l0.3,0.3c0-0.3-0.3-0.3-0.3-0.3c0-0.3,0-0.3-0.3-0.3
		L375.3,39.4z M374.4,66.1l0.6-0.3v0.3h1v-0.3c-0.4,0-0.4-0.3-0.4-0.6c0.3-0.3,0.3-0.9,0.6-1.5l-0.3-0.3c-0.3,0-0.3-0.3-0.3-0.3
		c-0.3,0-0.3-0.3-0.9-0.3l-0.3,0.3c0,0.6-0.3,0.6-0.3,0.9c-0.6,0-0.6,0.3-0.6,1.2h0.3l0.3,0.7C374.1,65.8,374.1,66.1,374.4,66.1z
		 M374.6,43.8c0,0.3,0,0.3-0.3,0.3h0.3l0.3-0.3c0.3-0.3,0.3-0.6,0.3-0.9l-0.3-0.3c-0.6,0-0.6,0-0.9,0.3v0.6c0,0.3,0,0.6,0.3,0.6
		L374.6,43.8z M374.4,36.7 M376.3,86.1H375v-0.2c0,0-0.6,0.6-0.6,1.2c0,0.3,0.3,0.6,0.3,0.9c0.3,0,0.6,0.3,1.3,0.3V88
		C376.3,87.4,376.6,86.8,376.3,86.1z M375,57.7v-0.6h-0.3l0.3,1h0.3c0,0,0.3-0.1,0.7-0.4v-0.6h-0.7l-0.3,0v-0.3l-0.3,0.3L375,57.7z
		 M377,12.5l0.3,0.3c0.3,0,0.6,0,0.6-0.3l-0.3-0.6c-0.3,0-0.3,0-0.6,0.3V12.5z M376.9,28.6l0.1-0.3v0.3c0.2,0,0.5,0,1-0.3V28
		l-0.5-0.3c-0.3-0.3-0.9,0.3-0.9,0.6C376.6,28.6,376.6,28.6,376.9,28.6z M378,48.2v0.3c0.3,0.3,0.7,0.6,1.3,0.6h0.3l0.3-0.3v-0.3
		l-0.7-0.6c-0.3-0.3-0.3-0.3-0.7-0.3C378.3,47.5,378.3,47.9,378,48.2z M379,10.1c0,0.3,0.3,0.3,0.7,0.3c0,0,0.3,0,0.3-0.3V9.7
		c0-0.3-0.3-0.3-0.3-0.3c-0.3,0-0.7,0-0.7,0.3V10.1z M380.7,47.2c0.3,0,0.3,0.3,0.3,0.3v0.3c0.3,0,0.3-0.3,0.3-0.3
		c0.3,0,0.3-0.3,0.3-0.3c0-0.3-0.3-0.6-0.6-0.6v0.3C381,46.9,381,47.2,380.7,47.2z M382.1,44.7l0.6,0.3c0.3-0.3,0.3,0,0.6,0l0.6,0.3
		V45l0.9-0.9c0-0.9-0.9-1.5-1.5-1.5c-0.3,0-0.4,0.3-0.4,0.3v0.3v0.3v0.3C383,43.8,382.1,44.4,382.1,44.7z M383,35.4l0.7,0.3l0.3-0.6
		h0v-0.3c0.3-0.3,0-0.3,0-0.3l-0.3,1.6l0,0H383V35.4z M385,48.7v-0.6h-0.7l-0.3,0.3c0,0-0.3,0,0,0.3v0.4h0.3
		C384.3,49,384.6,49,385,48.7z M384.9,19.4c0,0.3,0.3,0.6,0.6,0.6l0.3-0.3c0.3,0,0.3-0.3,0.3-0.6h-0.3
		C385.5,18.8,384.9,19.1,384.9,19.4z"/>
	<path d="M495,132.9v53.3c0,17.1-13.9,30.9-30.9,30.9h-19.1c-17.1,0-30.9-13.9-30.9-30.9V33.9c0.3,0,0.6-0.3,0.6-0.9l-0.3-0.3
		c-0.3,0-0.3,0-0.3-0.3V6.3c0-3.4,2.8-6.2,6.2-6.2H436c0,0,6.2,2.2,5,6.2v52.9c0.9,0,0.5-0.3,0.2-0.3l-0.3,0.3c0,0.3,0,0.6-0.3,0.9
		l0.3,0.3c0.3,0,0.3,0,0.3,0.6h0.8l0,0l0,0v106h-0.1c0-0.5,0.1-0.2,0.1-0.2v9.2l-0.3-0.3c-0.3,0-0.7,0-0.7,0.3h-0.3
		c0,0.3,0,0.7,0.3,0.7c0,0.3,0.3,0.7,0.3,0.7l0.3-0.3h0.3v5.8c0,3.4,2.8,6.2,6.2,6.2h11.7c0.9,0,1.5-0.3,2.1-0.3v0.1
		c0,0,0.3,0.3,0.3,0.9c0,0.3,0,0.3,0.3,0.6c0,0,0.3,0,0.3,0.3l0.3,0.3h0.3c0-0.3,0.3-0.3,0.3,0h0.2v-0.6c0,0,0.8-1.2,0.4-1.5
		c0,0-0.3-0.6-0.9-0.6c2.2-0.9,3.1-2.8,2.5-5.6V90.2c0.9,0.3,0.9,0.3,1.2,0.9h0.3c0.3-0.9,0.3-1.2,0.3-1.8c0-0.3-0.9-0.2-0.9-0.2
		h0.1v-3c0.3,0,0.7,0.3,1,0.3v-0.3h0.1c0,0,0.3,0,0.3-0.3c0,0,0.3,0,0.3-0.3l0.3,0.3v-1.2c-0.3,0-0.3-0.3-0.6-0.3
		c-0.6,0-1.1,0.3-1.4,0.6V6.3c0-3.4,2.8-6.2,6.2-6.2h15.6c3.4,0,6.2,2.8,6.2,6.2l-1,49.8h-0.5c-0.3,0.1-0.3,0.4-0.3,0.7l0.6,0.3h0.2
		v73.3l1,0.3v0.3l-1.2,0.3c0-0.6,0-0.6,1.2-0.9v-0.6l-1.2-0.3c0-0.3,0-0.3-0.3-0.4h-0.9l-0.6,0.1l-0.3,0.3c0,0.3,0,0.6,0.6,0.9
		c-0.3,0-0.3,0.7-0.3,0.7h0.6l0.3,0.3l0.3,0.7h0.3l0.5-0.4v0.9C494.1,132.6,495,132.9,495,132.9z M415.2,24.1h0.3l0.4-0.4v-0.6
		c-0.4-0.3-1.1-0.3-1,0v0.6C414.9,24,415.2,24,415.2,24.1z M414.6,47.4l0.3,0.7h0.3l0.3-0.3c0-0.3,0-0.7-0.3-0.7h-0.3
		C414.6,47.1,414.6,47.1,414.6,47.4z M414.9,142.1h0.6l0.3-0.2c0.3,0,0.6,0,0.6-0.6l-0.6-0.2h-0.6c0-0.2-0.3-0.2-0.3,0.2
		s-0.3,0.3-0.3,0.6C414.6,141.9,414.6,142.2,414.9,142.1z M416.9,146.2c0.3,0,0.9,0,1.2-1.5l-0.6-0.6c-0.3-0.3-0.6-0.6-1.5-0.9h-0.3
		c0,0.3,0,0.3-0.3,0.3c0,0.3,0,0.3-0.3,0.6v0.3c0,0.3,0.3,0.3,0.3,0.6c0,0.6,0.3,0.9,0.9,1.5C416.5,146.5,416.5,146.5,416.9,146.2z
		 M416.5,110.9c-0.9,0-0.9,0.9-1.2,1.5l0.3,0.3c0.3,0.3,0.3,0.3,0.6,0.3c0.6,0,0.9-1,0.9-1h0.3l-0.3,1H417v-2h0.1
		C416.8,111.2,416.8,110.9,416.5,110.9z M415.1,33.6l0.3,0.6c0.3,0,0.3,0,0.6-0.3v-0.3l-0.3-0.3C415.4,33,415.1,33.6,415.1,33.6z
		 M417.3,149.1h0.3l0.3-0.7v-0.3c0-0.3,0-0.7-0.7-1H417c-0.3,0.7-0.3,1-0.3,1c0,0.3,0,0.7-0.3,0.7l0.3,0.7
		C417,149.4,417,149.4,417.3,149.1z M419.3,200.1H418l-0.3-0.1c0,0.3,0.3,0.9,0.3,0.9v0.3l0.3-0.2h0.3c0.3,0.8,0.6,1,0.6,1h0.3
		l0.3-0.2c0.3-0.3,0.6-0.3,0.9-0.9C420.5,200,420.2,199.7,419.3,200.1z M418.1,49.8l0.3,0.3h-0.3c0,0,0.3,0.3,0.6,0.3l0.3-0.3v-0.3
		c0,0,0.3-0.3,0-0.3c0-0.3-0.3-0.3-0.3-0.3l-0.3,0.3C418.1,49.5,418.1,49.5,418.1,49.8z M418.6,29.9l0.3,0.3
		C419,30.2,418.6,30.2,418.6,29.9c0,0.3,0,0.3,0.3,0.3c0,0,0,0.6,0.3,0.6l-0.3-0.3v-0.3l1-0.3v-0.3l-0.4-0.5h-0.3
		C419.3,29.2,418.6,29.2,418.6,29.9z M419.3,31.1 M421.5,41.8c-0.3-0.6-0.9-0.6-1.5-0.9v1.2h0.3l0.3,0.3l0.6,0.3
		C421.5,42.4,421.5,42.1,421.5,41.8z M422.7,67l-0.3,0.3c-0.3,0-0.3,0.3-0.3,0.3l-1,0.6v0.9c0,0.3,0,0.3,0.3,0.9h1.3l0.3-0.3v-0.9
		C423,68.2,423.3,67.6,422.7,67z M423.3,58.5c0-0.3-0.3-0.6-0.6-0.6l-0.6,0.6c0,0.3,0.3,0.6,0.6,0.6h0.3v-0.3L423.3,58.5z
		 M425.8,64.8c0.6,0,1.2-0.3,1.2-0.9c0.6-0.6,0.3-1.2,0-1.9c-0.3-0.6-0.9-0.6-1.5-0.9H424l0,0h-0.4c0,0.9,0.3,1.3,0.3,1.6
		c0.3,0.3,0.3,0.3,0.1,0.9v0.3C424.5,64.5,425.1,64.8,425.8,64.8z M425.1,29.9c0.3,0,0.3,0.3,0.6,0.3l0.3-0.3v-0.3l-0.3-0.6
		l-0.3,0.3C425.4,29.2,425.1,29.6,425.1,29.9z M427.3,114.1c0.3,0.5,0.6,0.2,0.6,0h0.3l0.3-0.1c0-0.3,0-0.6-0.3-0.6
		c-0.3-0.3-0.6-0.3-0.9-0.3l-0.3,0.3c-0.3,0.3-0.3,0.6,0,0.9v-0.2H427.3z M430,177.2l-0.3-0.3c0,0-0.3-0.3-0.6-0.3
		c0,0-0.3-0.3-0.6-0.3c-0.3,0-0.9,0.3-0.9,0.6l0.3,0.6v0.3c0,0,0,0.3,0.3,0.3h1.1l0.6-0.6V177.2z M429,10.4l0.3,0.3
		c0.3,0,0.6-0.3,0.6-0.6h0.3l-0.3-0.6c-0.3,0-0.6,0-0.9,0.3V10.4z M439.4,80.6c0,0,0-0.3-0.3-0.6c0,0,0-0.3-0.3,0.1H438v-1l0.1,0
		h-0.9l-0.3-0.7c0.3,0,0.3-0.3,0.6-0.6l1.5-0.3v-0.3c0,0-1.2-0.9-1.5-1.2c-0.3,0-0.6-0.3-0.6-0.6l-0.3-0.3c-0.9,0-0.9,0.9-0.9,1.5
		l-0.6,0.3l-0.9,0.6l-0.3,0.6h-0.9c-0.3,0.3-0.6,0.7-1.2,1c-0.6,0.3-0.9,0.6-1.2,1H430v-0.4c0,0-0.2-0.9-0.8-0.9l-0.3,0.3H428v2h1.2
		c0,0.7,0.8,0.7,0.8,0.7v-0.3c0,0,0.1-0.3,0.4-0.6c0.3,0.3,0.6,0.9,0.6,1.2h-0.3l0.3,0.7v0.3c-0.9,0.3-0.9,0.6-0.6,1.2l0.3,0.3
		c0.3-0.3,0.6-0.5,0.6-0.5h0.7l0,0h1.5l0.5,0.2v-0.6c0,0,0.1-0.3,0.4-0.6h0.6c0.3-0.6,0.9-0.9,2-0.9v-0.6c-0.1-0.3,0.2-1.4,0.2-1.4
		H437v1h1v-0.5c0,0,0.8,0.3,1.1,0.3C439.1,80.9,439.4,80.9,439.4,80.6z M431,54.9c-0.9-0.3-1.5-0.6-2-0.3v0.9
		c0.2,0.3,0.5,0.3,0.8,0.3s0.3-0.3,0.3-0.3s0.3,0,0.9-0.3V54.9z M432.6,173.7c0-0.3-0.6-0.3-0.6-0.3v0.7h-0.7c-0.3-0.4-0.3,0-0.3,0
		v0.3c0.3,0.3,0.6,0.3,1.3,0.6l0.3-0.6C432.6,174.4,432.9,174.1,432.6,173.7z M431.3,5.4L431,5.7V5.4l1,0.7h0V5.7
		c0.6,0,0.6-0.3,0.6-0.6c-0.3-0.3-0.9-0.3-0.9,0C431.3,5.1,431.3,5.4,431.3,5.4z M432.9,70.8l0.3,0.3h0.3l0.3-0.3c0,0,0.3-0.3,0-0.3
		c0-0.3,0-0.3-0.3-0.6l-0.3,0.3C432.9,70.5,432.9,70.5,432.9,70.8z M436,158.9v-0.3c-0.6-0.3-1-0.6-1.3-0.6s-0.6,0.3-0.9,0.6
		l0.2,0.6v-0.3c0.1,0.3,0.1,0.3,0.4,0.2h0.9L436,158.9z M438,63.3l0.3,0.3c0.3,0,0.6,0,0.9-0.3l0.3-0.3c0-0.3-0.3-0.6-0.3-0.6
		l-0.3-0.3h-0.3l-0.6,0.3V63.3z M439,142.7l-0.3-0.6h-0.3l-0.3,0.6c0,0.3,0,0.6,0.3,0.9l0.6-0.6V142.7z M438.6,68.9l-0.6,0.6v0.3
		l-0.3,0.3l0.3,0.3v0.3l0.3,0.3h0.3c0.3,0,0.3-0.3,0.6-0.3l0.3-0.3c0.3-0.3,0.3-0.3,0-0.6c0-0.3-0.3-0.3-0.6-0.3
		C438.9,69.2,438.9,69.2,438.6,68.9z M440,74.1L440,74.1l-0.9,0c-0.3,0-0.3,0.3-0.3,0.3c0.3,0.6,0.6,0.6,0.9,0.7h1.3v-0.4
		C440.3,74.7,440.6,74.4,440,74.1z M440.9,63.1l0.1-0.4v-0.3c0.2-0.3,0.5-0.6,0-0.9v-0.3c-1,0-1,0.6-2,0.9v0.6
		c0.7,0.3,1,0.3,1.3,0.4H440.9z M451.8,207.5l-0.6-0.6l-0.3,0.3c-0.3,0.3-0.3,0.3-0.3,0.6l0.3,0.3h0.3
		C451.4,208.1,451.8,208.1,451.8,207.5z M454,205.9c-0.3,0-0.3,0-0.3-0.3c-0.3,0-0.9-0.3-1.4,0l-0.3,0.3v0.9c0.3,0,0.3,0.3,0.6,0.3
		l0.3,0.3c0.3,0,0.6,0,0.6-0.3h0.3l0.3-0.3V205.9z M464.8,215.1h-0.6c-0.3,0-0.3,0.3-0.3,0.3c0,0.6,0.3,0.6,0.6,0.6
		c0,0,0.3,0,0.3-0.3C465.1,215.7,464.8,215.4,464.8,215.1z M467.2,193.9l-0.3-0.3c-0.3-0.3-0.6-0.6-0.6-1.2l-0.3-0.2h-0.3
		c-0.3-0.4-0.6-0.1-0.7-0.1v0.3v0.3v0.3c-0.6,1.2-0.6,2.5,1.3,2.2h0.3c0,0,0-0.3,0.3-0.6C466.9,194.5,466.9,194.2,467.2,193.9z
		 M465.4,201.6l-0.3-0.3c-0.3,0-0.6,0.3-0.6,0.6s0,0.6,0.3,0.6l0.3-0.3C465.4,202.2,465.7,201.9,465.4,201.6z M467.8,134.1
		c0-0.9,0.3-0.9,0.3-1h0.3l0.5-0.2V132c-0.5-0.6-1.5-0.6-2,0v1.2l0.5,0.9H467.8z M468.5,69.1h-0.6c-0.3,0.1-0.3,0.4-0.3,0.7
		c-0.3,0.3,0,0.6,0,0.3h0.9l0.3,0C468.8,69.8,468.5,69.5,468.5,69.1z M468.8,154.9l-0.8,0.3v-0.3c0.2,0,0.2,0.3,1,0.3v0.9h-0.8
		c0.3-0.3,0.9-0.3,0.9-0.9C469.1,155.2,469.1,154.9,468.8,154.9z M472,1.1h-0.7c0,0-1.2-0.6-1.9,0c0,0-0.3,0-0.3,0.3l0.9,0.3V2
		c-0.6,0.3-0.9,0.3-0.9,0.3c0,0.6,0,0.9,0.3,0.9c0,0.3,0.3,0.3,0.3,0.3c0.6,0,1.3-0.3,1.3-0.3V3.1h-0.1L472,2V1.1z M469.9,42.9
		c-0.3-0.6-0.9-0.6-1.2,0l0.3,0.3v0.6l0.3,0.3h0.6l0.3-0.3C470.2,43.5,470.2,43.2,469.9,42.9z M472.7,129.1h-0.3
		c-0.3,0.3-1,0.7-0.7,1c0,0,0,0.3,0.3,0.3l0.3-0.3h0.7v-0.3C473,129.8,473,129.1,472.7,129.1z M475.7,131.3l0.3-0.3v-0.3
		c0-0.3,0.3-0.3,0.3-0.6H476c0-0.3-0.6-0.9-1.1-0.9c-0.3,0-0.6,0-0.9,0.6v1.5l0.3,0.3c0.3,0,0.6,0.3,1.1,0.3L475.7,131.3z M474,66.5
		v0.6h0.6l0.6-0.3c0-0.3,0-0.3-0.3-0.3C474.9,65.9,474,66.2,474,66.5z M477,27.7l-0.3-0.3c0,0,0-0.3-0.3-0.3h-0.3
		c-0.3,0.6-0.3,1.2-0.3,1.5c0.3,0.3,0.6,0.3,0.9,0.3c0,0,0.3,0,0.3-0.3l-0.3-0.3c0.3,0,0.3,0,0.3,0.3v-0.3
		C477,28.3,477.3,28,477,27.7z M477,180.4c0-0.3-0.3-0.3-0.3-0.7l-0.7,0.3h0.3l-0.3,0.3v0.3l0.3,0.3h0.3
		C477,181.1,477,180.8,477,180.4z M477,2.9v0.2h0.1c0,0.5,0.9,1,0.9,1h0.3l0.3-0.8c0-0.6-0.3-0.9-0.6-1.2h-0.6l-0.3,0.5L477,2.9z
		 M477,193.2v0.3C477.6,193.9,477.6,192.9,477,193.2z M478.1,146.1l0.3-1h0.3c0.3,0.8,0.3,0.8,0.3,0.5c-0.3-0.3-0.9-0.3-1,0
		L478.1,146.1L478.1,146.1z M478.4,169.1c0.6-0.3,0.6-0.9,0.6-1.2v-0.6c-0.6,0-0.6,0-0.9,0.3l-0.3,0.3c0,0.3,0.3,0.3,0.3,0.6
		L478.4,169.1z M480,10.1h-0.4c-0.3-0.3-0.3-0.7-0.6-0.7c0,0-0.3,0-0.3,0.7h-0.3c0,0,0.3,0.3,0.3,0.6L479,11v1.1h1.2
		c0.3-0.5,0.6-0.5,0.9-0.8c0-0.3-0.3-2.2-0.3-2.2H480V10.1z M479.3,165.4l-0.3-0.3h-0.3c-0.3,0.6-0.3,0.9-0.3,1.2
		c0,0.3,0.3,0.3,0.6,0.8h0.3C479.6,166,479.3,165.7,479.3,165.4z M479,4.5c0.3,0.3,0.3,0.3,0.6,0.3c0.3,0,0.3,0,0.6-0.3l-0.9-0.9
		L479,3.9V4.5z M479.6,68.1h1.4v0.1c0.2-0.3,0.2-0.6,0.2-1.2l-0.3-0.3c-0.6-0.3-0.9-0.3-1.5,0L479,67c0,0.6,0,0.6,0,0.9v0.3
		L479.6,68.1z M481,179v-0.3c0,0-1.7-0.6-2-0.3v0.6l0.3,0.1h0.3l0.4-0.1v0.3L481,179z M480.3,24.8l-0.3-0.3v-0.3h-0.7
		c0,0-0.3,0-0.3,0.7l0.3,0.3h0.7C480,25.1,480.3,25.1,480.3,24.8z M480.5,122.1h1.5v0l0.4-0.3l-0.3-0.7h-0.3c0,0.4,0.2,0,0.2,0v-0.3
		c0,0-0.8-0.6-1.2-0.7h-0.9c-0.3,0.7-0.6,1.4-0.3,2l0.6,0.3L480.5,122.1z M480.2,33 M480.8,33.8l0.3,0.3h0.3c0.6,0,0.6-0.6,0.6-0.9
		l-0.3-0.3C481.2,32.9,480.8,33.2,480.8,33.8z M480.8,117.1c0.3,0,0.3,0.3,0.3,0.3c0,0.3,0.3,0.6,0.6,0.7h0.3l-0.1-0.4v-0.3
		c0.4,0,0.7-0.3,0.7-0.6l-0.3-0.7h-0.3c0,0.4-0.3,0.1-0.6,0.1l-0.3,0.6C481.2,116.8,480.8,116.8,480.8,117.1z M482.3,198.1H482v-0.3
		c0,0,0-0.3,0.3-0.3l-0.3-0.6c-0.3,0-0.7,0-0.7,0.3l-0.3,0.3v0.9l0.3,0.3c0,0.3,0.3,0.3,0.3,0.3l0.3-0.3
		C482.3,198.4,482.3,198.4,482.3,198.1z M482.4,110.1h-0.7c-0.3,0-0.3,0.3-0.3,0.7l0.3,0.3h0.7l0.3-0.3
		C482.7,110.4,482.4,110.4,482.4,110.1z M483.6,169.1l-0.3-0.3c-0.3,0-0.3-0.3-0.6-0.3l-0.7,0.3v0.6l0.1-0.3c0,0-0.3,0,0.9,0.3v0.3
		c-1.2,0-1.2,0.4-1.2,0.4h0.3l0.9-0.1v-0.3c0.3,0,0.3-0.3,0.3-0.6H483.6z M485,66.7v-0.6c0,0-0.3,0,0,0l-0.3-0.6
		c-0.3,0-0.9,0-1.2,0.3c-0.3,0.3,0,0.9,0,0.9c0.3,0,0.3,0.3,0.3,0.3l0.3,0.3c0.3,0,0.3-0.3,0.6-0.3L485,66.7z M484.6,199.7
		c-0.3-0.6-0.6-0.6-0.6-0.6c-0.3,0-0.3,0.3-0.3,0.3c0,0.3,0,0.6,0.6,0.6L484.6,199.7z M487,141.7v-0.6h-0.3c-0.3,0-0.6,0.3-0.6,0.6
		c0,0.3,0,0.3,0.3,0.6L487,141.7z M488.9,149l-0.3-0.3c0.3-0.3,0.3-0.3,0-0.6h-0.3c-0.3-0.3-0.3-0.3-0.6-0.3l-0.3,0.3
		c-0.3,0.3-0.6,0.9-0.3,2h0.3c0-0.5,0.3-0.2,0.6-0.2c0.3-0.3,0.6-0.3,0.6-0.6C488.6,149.3,488.9,149.3,488.9,149z M489.2,43.5
		l0.3,0.6h0.6c0,0,0.6-0.3,0.6-0.6l-0.3-0.4h0.6l0,0h-0.9l-0.6-0.2C489.5,43.2,489.2,43.2,489.2,43.5z M490.3,143.9
		c-0.3,0.3-0.3,0.6-0.3,0.9v0.3h0.9l0.6-0.6C491.5,143.5,490.6,143.5,490.3,143.9z M490,126.7v0.6c0.1,0,0.1,0.3,0.4,0.3
		c0,0,0.3-0.3,0.6-0.3v-0.6l-0.3-0.6h-0.6L490,126.7z M490.4,21.2c0.3,0.3,0.3,0.3,0.3,0.6l0.3,0.3h0.9l0-0.3v-1.2
		c0,0,0.3-0.3,0-0.5h-0.3c-0.3-0.1-0.9,1-0.9,1h-0.3l-0.3-0.8C490.1,20.9,490.4,21.2,490.4,21.2z M490.9,63.3c0-0.3,0-0.9-0.3-0.9
		l-0.6,0.3v0.6c0.3,0,0.3,0.3,0.3,0.3C490.6,63.6,490.9,63.3,490.9,63.3z M493,137.5l-1-0.4h-0.3l-0.7,0.4v0.3
		c0.4,0,0.4,0.6,0.7,0.6l0.3-0.6v0.3c0,0,0.3,0,1-0.3V137.5z"/>
	<path d="M578,211c0,4-2.3,6.1-6.7,6.1h-46.2c-3.4,0-6.2-2.8-6.2-6.2v-83.5c0-0.3,0-0.3,0.3-0.3c0,0,0.3-0.3,0.3-0.6l-0.3-0.3
		c0-0.3,0-0.3-0.3-0.3V62.1h1v0.3c0.7,0,1-0.3,1-0.9c0-0.3,0-0.6-0.3-0.9c0,0-0.3-0.3-0.7-0.3v0.3c-0.3,0-0.7,0.3-1,0.3V6.3
		c0,0,0.5-2.5,1.1-3.4c0.6,0,1.2-0.6,1.2-1.2c0.9-0.9,2.5-1.5,4-1.6h13.9c0,0.1,0,0.4,0.3,1h0.3c0.6-0.3,0.6-0.6,0.9-0.9
		c3.4,0,6.1,6.2,6.1,6.2v9.8h-0.6l-0.3,0.6c0,0.6,0,1,0.3,1.3c0,0,0.3,0.3,0.6,0.3v11.1c0,0-0.3,0.3-0.3,0.6h0.3v29.5l-0.3-0.3
		l-0.3,0.3c-0.3,0.3-0.3,0.6-0.4,0.6v0.9h1v121.6c0.1,3.4,6.2,6.4,6.2,6.4h18.6c3.4,0,6.2,2.8,6.2,6.2v3.1c-0.3,0-0.7-0.3-1-0.3
		h-0.3c0,0.3,0,0.3-0.3,0.6c0,0,0,0.3-0.3,0.3v1c0,0.3,0.3,0.6,0.3,0.6c0,0.6,0.3,1.2,1,1.5h0.7V211z M521.1,54.5l-0.6-0.6l-0.3,0.6
		c-0.3,0.3-0.3,0.3,0,0.6h0.3l0.3-0.3C520.8,54.8,521.1,54.8,521.1,54.5z M520,5.4c0,0.6,0.3,0.6,0.3,0.6l0.3-0.3
		c0.3,0,0.3,0,0.3-0.3V5.1h-1V5.4z M521.7,20.1l0.3-0.3v-0.3c-0.3-0.3-0.3-0.3-0.7-0.3l-0.3,0.3v0.3l0.3,0.3H521.7z M523.5,127.3
		l-0.6-0.9c-0.3,0-0.6-0.3-0.6-0.3h-0.6l-0.3,1h-0.3l-0.3,0.2c0,0.3,0.3,0.6,0.9,0.8h0.3l0,0h0.6c0.3,0.2,0.6-0.1,0.6-0.5
		L523.5,127.3z M521.4,148.1l-0.4,0.3v0.7h0.4l0.3,1h0.3v-1.4C522.3,148.4,522,148.1,521.4,148.1z M521,11c0.3,0,0.3,0.3,0.7,0.3
		c0.3,0,0.7-0.3,0.7-0.6c0.3-0.3,0.3-0.6,0-0.6h0.7c0.7,0,0.7-0.3,0.7-0.6L523,8.9c-0.7,0-1,0.3-1,0.6l0.3,0.3l-0.3,0.3V9.8
		c0,0-0.3-0.3-0.7-0.3L521,9.8v0.3C520.7,10.4,521,10.7,521,11z M522,20.1h0.3c0,0.3,0.6,0.3,0.9,0.6l0.3-0.3c0.3-0.3,0-0.6,0-0.6
		l-0.3-0.6c-0.3,0.3-0.3,0.3-0.6,0c-0.3,0-0.3,0.3-0.6,0.3V20.1z M522,89.3c0.3,0.3,0.3,0.3,0.6,0.3c0.3,0,0.6,0,0.6-0.3
		c0.3-0.3,0.3-0.6,0.3-0.9l-0.3-0.3c-0.6,0-0.9,0-1.2,0.3V89.3z M524.2,14.1h-1.2c-0.3-0.3-0.3,0-0.3,0s-0.3,0-0.6,0.3v0.7h1.2
		c0.3-0.1,0.9-0.4,1.2-0.7L524.2,14.1z M523.5,71l0.3-0.3c0-0.3-0.3-0.6-0.6-0.6h-0.3l-0.3,0.3C522.6,71,523.2,71,523.5,71z
		 M525.4,122.9c0-0.6-0.3-0.9-1.2-0.9l-0.6,0.6l-0.6,0.9c0,0.3,0,0.3,0.3,0.6h0.3l0.9-0.6c0.3-0.3,0.3-0.3,0.6-0.3L525.4,122.9z
		 M523.4,7.1h0.6V6.5c-0.3,0-0.3-0.3-0.6-0.3l-0.3,0.3C523.1,6.8,523.1,7.1,523.4,7.1z M526.3,30.1h0.3c0,0,0.3-0.5,0.3-0.9
		c0-0.3,0.3-0.6,0.1-0.9v0.3l0.9-0.3c0.3-0.3-0.9-0.9-0.9-0.9v-1.2c0,0,0.3-0.3-0.1-0.3l-0.3,0.3c0,0.3-0.6,0.6-0.6,0.6v0.9
		c0,0-0.3,0.9,1,1.2v0.3c-1.3,0-1.6,0-1.6,0.3l0.3,0.3C525.7,30.2,526.3,30.1,526.3,30.1z M528.5,193.2l0.3-0.3
		c-0.3-0.3,0-0.6,0-0.9c0-0.6,0.3-1.5-0.6-1.9h-0.3c-0.3-0.3-1.2-0.3-1.5-0.3l-0.3,0.3c-0.3,0.6,0,1.2,0.3,1.9
		c0.3,0,0.3,0.3,0.3,0.6l0.3,0.3c0.3,0,0.6,0,0.6-0.3C527.6,192.9,527.9,193.2,528.5,193.2z M526.4,127.8l0.3,0.3h1.2
		c0.6,0,0.9-0.3,1.2-0.9l-0.6-0.3c0,0-0.3,0-0.3-0.3c-0.3,0-0.6-0.3-0.9-0.3l-0.3,0.3v0.3C526.7,126.9,526.1,127.2,526.4,127.8z
		 M529,119.6c-0.5,0-0.5,0-0.5-0.5h-0.3c-0.6-0.1-1.2-0.1-1.5,0.5c0,0.3-0.3,0.6-0.3,0.9c0,0.6,0.3,0.9,0.7,0.9v-0.4h0.6
		c0.9,0.7,0.9,0,0.9-0.3c0-0.3,0.3-0.3,0.5-0.6V119.6z M528.2,156.1h-0.9l-0.6,0.3c0,0.6,0.3,0.9,0.6,1.7h0.3
		c0.3-0.4,0.6-0.8,0.6-1.1C528.5,156.7,528.2,156.4,528.2,156.1z M529,11.8l0.3,0.3h0.3l0.3-0.3v-0.3c0-0.3-0.7-0.6-1-0.3V11.8z
		 M531,197.9v-0.3c0,0-1.3-0.3-1.6-0.3c-0.3,0-0.6,0.3-0.9,0.6l0.3,0.6c0,0,0,0.3,0.2,0.6v-0.3c0.4,0.3,0.7,0.3,0.7,0.3h0.3v-0.3
		C530.3,198.5,531,197.9,531,197.9z M530,14.5v0.6h0.3c0,0,0,0.3,0.3,0.3l0.3-0.3v-0.6C530.7,14.2,530,14.2,530,14.5z M530.7,38.2
		c0.3,0.3,0.3,0.3,0.6,0.9h0.6l0.1-0.9v-0.6l-0.4-0.5h-0.9l-0.3,0.2C530.3,37.6,530.3,37.9,530.7,38.2z M531,11.7l0.3,0.3
		c0.3,0,0.6-0.3,0.6-0.6l-0.3-0.3H531C530.7,11.4,531,11.7,531,11.7z M531,2.9l0.6-0.8H531v1.5l0.6,0.3c0.6,0,0.9-0.3,0.9-0.6
		c0.3-0.3,0-0.6,0-0.2h-0.3c-0.3-0.5-0.3-0.8-0.3-0.8c-0.3,0-0.3,0.3-0.9,0.3V2.9z M534,195.7c-0.6-0.3-0.9-0.3-0.9-0.3
		c0-0.3-0.3-0.3-0.3-0.3h-0.6c0,0.3,0,0.3-0.3,0.3c-0.3,0-0.6,0.3-0.6,0.6l0.3,0.3c0.3,0.3,0.9,0.3,1.2,0.8h0.6l0.6-0.8V195.7z
		 M532,191.1v0.9c0,0.3,0.3,0.6,0.7,0.6l0.3-0.3v-0.6l-0.7-0.6H532z M536,176.1h-0.3c-0.3-0.7-1.3-0.7-1.7-0.3
		c-0.3,0.3-0.7,1-0.7,1.7l0.7,0.3c0.3,0,0.3,0.3,0.7,0.3h0.3l0.3-0.3C535.7,177.4,536,177.1,536,176.1z M533.7,28.7L534,29
		c0,0.3,0.3,0.3,0.6,0.3c0,0,0.3,0,0.6-0.3l0.3-0.3c0-0.6-0.3-0.9-0.6-0.9c-0.3,0-0.3,0.3-0.6,0.3H534v0.3L533.7,28.7z M537.5,71.1
		c0.3-0.4,0.3-0.7,0.6-0.7l0.3-0.3c0-0.3,0-0.6-0.3-0.9l-0.3-0.3l-0.8,0.3v0.3c0.2,0-0.2,0,1,0.3v1.3H537.5z M537.3,48.1h0.7v-0.6
		c-0.3-0.3-0.3-0.3-1-0.3v0.3C536.7,48.1,537.3,48.1,537.3,48.1z M537.1,32.5c0,0.3,0,0.6,0.3,0.6h0.3c0-0.3,0.3-0.3,0.3-0.3v-0.6
		C537.4,31.9,537.1,32.2,537.1,32.5z M538.5,118.8c0-0.6-0.6-0.9-1.2-0.9l-0.3,0.3v0.6l0.3,0.3h0.9L538.5,118.8z M538.1,16.1
		l-0.1,0.5v-0.3c-0.2,0.3-0.2,0.3-0.5,0.3l0.3,0.5h0.6l0.6-0.2v-0.8H538.1z M539.3,9.4c0.3-0.3,0.6,0,0.9,0L541,10V9.7
		c0,0,0.5,0.3,0.8,0.3h0.2l0,0h0.4c0.6-0.3,1.2-0.3,0.6-0.7V9.1h1l-1-0.6V8.1h1c0.3-0.2,0-0.5,0-0.8V7c-0.7-0.3-0.7-0.6-0.7-1.2
		l-0.6-0.6h0.3c0,0-0.3,0.3,0,0V4.8c-0.6,0,0-0.3,0-0.3V3.9l-0.9-0.3c-0.3-0.3-0.9-0.3-1.2-0.3c-0.3,0-0.3,0.3-0.6,0.3L539,3.9v0.2
		h1v1h-0.7L539,5.4v0.3c0,0.6,0,0.6-0.6,0.6l-0.3,0.3c0,0.6,0.3,0.9,0.3,1.5c0.3,0.3,0.3,0.6,0.3,0.9L539.3,9.4z M540,99.4v-0.3
		h-0.3c0-0.3-0.3-0.3-0.6-0.6l-0.3,0.3c0,0.3,0,0.6,0.3,0.6c0,0.3,0.3,0.3,0.3,0.3C539.7,99.7,539.7,99.7,540,99.4z M541,11.5
		c-0.3,0-0.3-0.3-0.6,0l-0.3,0.3l0.3,0.3h0.3l0.3-0.3V11.5z M541.9,86.5c-0.3-0.3-0.6-0.3-0.9-0.3v-0.3c-0.6,0-0.9,0.3-0.9,0.9
		c0,0.3,0,0.6,0.3,0.9c0.3,0.3,0.3,0.3,0.6,0.3v-0.3c0.3,0,0.6-0.3,0.9-0.6C542.2,86.8,541.9,86.8,541.9,86.5z M541,89.9l-0.3-0.3
		c0,0,0-0.3-0.3-0.3l-0.7,0.6c0,0.3,0,0.6,0.3,0.6v0.6h0.3c0.7,0,0.7-0.6,0.7-0.9V89.9z M542.4,55.5c0.3,0,0.3-0.3,0.6-0.3v-1.1
		h-0.3c0,0-0.6-0.4-0.7-0.4V54c-0.5,0,0,0.3,0,0.3v0.3l-0.2,0.3c0,0,0,0.3,0.3,0.3L542.4,55.5z M544,134.8v-0.3
		c-0.3-0.3-0.3-0.3-1-0.3v0.6l0.3,0.3h0.3L544,134.8z M545.5,31.1l-0.3-1.2c0.3,0,0.3,0,0.3-0.3c0,0,0-0.3-0.3-0.5h-0.3l0.1,0.5
		v-0.3c0,0-0.7,0-1-0.3l-0.3,0.3c-0.3,0.3-0.6,0.3-0.3,0.9l0.3-0.1h0.6l0.6,1H545.5z M545,39.1l1-0.3v-1.7h-2v1h0
		c0-0.2-0.3-0.2-0.3,0.1l1.3,0.3v0.3l-1.3,0.3l1.3,0.3V39.1l-1,0v1h0.6l0.3-1L545,39.1L545,39.1z M545,72.5v0.3
		c0.3,0,0.3,0.3,0.7,0.3h0.3v-0.6l-0.3-0.3C545.3,72.2,545,72.2,545,72.5z M547.2,107.1h-0.3c-0.3,0-0.9,0.3-0.9,0.9v0.3
		c0,0.3,0.3,0.3,0.6,0.3c0.3,0,0.6-0.3,0.9-0.6C547.5,107.7,547.5,107.4,547.2,107.1z M551.3,189.9c0-0.3,0-0.3-0.3-0.7
		c0-0.3-0.3-0.3-0.7-0.3s-0.7,0.3-0.7,0.3s0,0.3,0.3,0.7v-0.3c0,0.3,0.3,0.7,0.3,0.7l0.7-0.3v0.3L551.3,189.9z M576.1,197.9l0.3-0.8
		h0.3l0.2,0.2l0,0c0.4,0,0.7,0,0.7-0.6l-0.6-0.5h-0.6l-0.3,0.5c0,0.3-0.3,0.3-0.3,0.6C575.8,197.6,575.8,197.6,576.1,197.9z"/>
</g>
</svg>
